<svg width="32" height="32" viewBox="0 0 32 32" fill="none" xmlns="http://www.w3.org/2000/svg">
<g clip-path="url(#clip0_4296_187500)">
<path d="M31.5212 19.8708C29.3842 28.4423 20.7012 33.6588 12.1282 31.5213C3.5582 29.3843 -1.6588 20.7023 0.479196 12.1313C2.6157 3.5588 11.2982 -1.6582 19.8692 0.478798C28.4417 2.6158 33.6582 11.2988 31.5212 19.8708Z" fill="#F5AC37"/>
<path d="M1.93427 12.4943C3.87027 4.72534 11.7388 -0.00265667 19.5058 1.93384C27.2748 3.87034 32.0023 11.7388 30.0658 19.5073C28.1288 27.2748 20.2608 32.0023 12.4908 30.0653C4.72427 28.1293 -0.00322774 20.2613 1.93427 12.4943Z" stroke="white" stroke-opacity="0.24" stroke-width="2.0625"/>
<path opacity="0.3" d="M31.0451 10.5635L0.206103 18.565C-0.14154 16.4242 -0.0486449 14.2351 0.479103 12.1315C2.6146 3.55896 11.2976 -1.65854 19.8686 0.478961C25.2386 1.81746 29.2916 5.72396 31.0451 10.564V10.5635Z" fill="white"/>
<g filter="url(#filter0_di_4296_187500)">
<path d="M28.6113 19.1451C26.8748 26.1091 19.8203 30.3476 12.8543 28.6101C5.89129 26.8751 1.65229 19.8211 3.38929 12.8566C5.12529 5.89158 12.1803 1.65259 19.1443 3.38909C26.1088 5.12509 30.3478 12.1801 28.6113 19.1451Z" fill="#F8931F"/>
</g>
<g filter="url(#filter1_d_4296_187500)">
<path fill-rule="evenodd" clip-rule="evenodd" d="M24.199 11.144C24.5564 11.5169 24.819 11.966 24.9659 12.4552C25.1336 13.0075 25.1763 13.5885 25.0909 14.1583C25.0272 14.5487 24.9261 14.9324 24.7889 15.3045C24.657 15.6418 24.4993 15.969 24.3169 16.2833C24.1444 16.589 23.9496 16.8825 23.7341 17.1613L23.097 17.9957L19.9326 21.9338H16.3482L19.5479 18.0163H19.3261C18.7975 18.0249 18.2736 17.9193 17.7923 17.7068C17.3607 17.5123 16.983 17.2208 16.6903 16.8564C16.3978 16.4836 16.1947 16.0521 16.0957 15.5933C15.9838 15.0914 15.9695 14.5737 16.0532 14.0667C16.1306 13.4747 16.334 12.9048 16.6502 12.3933C16.954 11.9054 17.3438 11.4732 17.8018 11.1165C18.2632 10.7568 18.7853 10.4776 19.345 10.2912C19.9257 10.0965 20.5359 9.99812 21.1502 10.0001C21.7374 9.99619 22.3203 10.0964 22.8704 10.2958C23.3727 10.4789 23.8267 10.7687 24.199 11.144ZM20.9685 15.4398C20.9685 15.4398 21.5396 16.0954 22.2616 15.7905C22.5014 15.6973 22.7008 15.5269 22.8263 15.3077C22.9517 15.0885 22.9957 14.834 22.9507 14.587C22.9498 14.571 22.9498 14.5549 22.9507 14.5389C22.9107 14.319 22.8203 14.1106 22.6864 13.9291L22.6581 13.8856C22.068 13.019 21.3662 12.2294 20.5697 11.536C20.5697 11.536 19.0689 12.8861 18.4082 14.0323L18.387 14.0712C18.2652 14.2683 18.1932 14.4906 18.1769 14.72V14.7956C18.175 14.9818 18.2246 15.1652 18.3205 15.3264C18.4163 15.4877 18.555 15.6211 18.722 15.7125C18.9451 15.8413 19.208 15.889 19.4638 15.847C19.7197 15.805 19.9519 15.6761 20.119 15.4833C20.1426 15.463 20.1722 15.4505 20.2036 15.4476C20.235 15.4447 20.2665 15.4516 20.2936 15.4673C20.3739 15.5292 20.3809 15.6369 20.2936 15.8776C20.1791 16.2051 19.9569 16.4871 19.6612 16.6799H21.5207C21.3534 16.5579 21.2096 16.4081 21.0959 16.2375L21.0653 16.1893C20.9553 15.9975 20.8561 15.8 20.7679 15.5979C20.7594 15.5799 20.75 15.5623 20.7396 15.5452C20.6903 15.4389 20.6139 15.3465 20.5178 15.2767C20.4216 15.2069 20.3087 15.1621 20.1898 15.1463C19.7202 15.1463 19.5267 15.0776 19.555 14.8758C19.5664 14.8294 19.5822 14.7842 19.6022 14.7406C19.6096 14.7274 19.6141 14.7129 19.6156 14.698C19.617 14.683 19.6155 14.668 19.6108 14.6536C19.6062 14.6393 19.5987 14.6261 19.5887 14.6146C19.5787 14.6032 19.5664 14.5938 19.5526 14.587C19.4937 14.5435 19.4913 14.5274 19.5079 14.4793C19.5244 14.4311 19.5857 14.4311 19.6353 14.4311C19.6353 14.4311 19.489 14.3922 19.489 14.289C19.4871 14.2763 19.4891 14.2633 19.4945 14.2515C19.4999 14.2398 19.5086 14.2297 19.5196 14.2225L19.522 14.2208C19.5644 14.1894 19.6832 14.1013 19.5999 13.9933C19.5999 13.9933 19.6164 13.991 19.5149 13.9429C19.4135 13.8947 19.3898 13.8099 19.5149 13.7297L19.5191 13.727C19.6442 13.6468 19.8316 13.5266 19.876 13.4019C19.9048 13.3096 19.9206 13.214 19.9231 13.1176C19.9231 13.1176 19.9303 12.8471 20.3125 12.407C20.3593 12.3561 20.4106 12.3094 20.4659 12.2672C20.4635 12.2695 20.4517 12.3222 20.4517 12.3222C20.4328 12.3726 20.4234 12.4231 20.4234 12.4735C20.3936 12.6392 20.3833 12.8076 20.3927 12.9755C20.4051 13.2728 20.5023 13.5609 20.6735 13.8076C20.8067 13.9704 20.9518 14.1236 21.1077 14.2661C21.2598 14.4001 21.3584 14.5819 21.3862 14.7796C21.3791 14.974 21.2945 15.1581 21.1502 15.293C21.0932 15.346 21.0325 15.395 20.9685 15.4398ZM11.6272 17.379L13.4229 10.5502L16.4693 10.5663L14.5957 17.732C14.4615 18.257 14.2839 18.7706 14.0648 19.2679C13.8447 19.7672 13.5383 20.2262 13.1587 20.6249C12.7538 21.04 12.2633 21.3673 11.7192 21.5854C11.0534 21.84 10.3414 21.9609 9.62613 21.9407C8.65865 21.9407 7.89174 21.716 7.31597 21.253C6.7402 20.7899 6.46175 20.0679 6.50422 19.1074L6.58445 18.2043L9.51287 18.2134L9.47038 18.5481C9.45233 18.6395 9.45659 18.7338 9.48281 18.8234C9.50904 18.913 9.55651 18.9953 9.62141 19.0639C9.68711 19.1349 9.7681 19.191 9.85863 19.2282C9.94917 19.2655 10.047 19.283 10.1453 19.2793C10.353 19.2907 10.5587 19.2351 10.7305 19.1211C10.8991 19.0058 11.0426 18.8594 11.1529 18.6902C11.273 18.4946 11.3673 18.2851 11.4337 18.0667C11.4429 18.0347 11.4519 18.0032 11.4609 17.9721C11.5232 17.7556 11.5797 17.5594 11.6272 17.379Z" fill="#FFF9CE"/>
</g>
</g>
<defs>
<filter id="filter0_di_4296_187500" x="1.28125" y="1.96875" width="28.75" height="28.75" filterUnits="userSpaceOnUse" color-interpolation-filters="sRGB">
<feFlood flood-opacity="0" result="BackgroundImageFix"/>
<feColorMatrix in="SourceAlpha" type="matrix" values="0 0 0 0 0 0 0 0 0 0 0 0 0 0 0 0 0 0 127 0" result="hardAlpha"/>
<feOffset dx="-0.34375" dy="0.34375"/>
<feGaussianBlur stdDeviation="0.6875"/>
<feColorMatrix type="matrix" values="0 0 0 0 1 0 0 0 0 1 0 0 0 0 1 0 0 0 0.32 0"/>
<feBlend mode="normal" in2="BackgroundImageFix" result="effect1_dropShadow_4296_187500"/>
<feBlend mode="normal" in="SourceGraphic" in2="effect1_dropShadow_4296_187500" result="shape"/>
<feColorMatrix in="SourceAlpha" type="matrix" values="0 0 0 0 0 0 0 0 0 0 0 0 0 0 0 0 0 0 127 0" result="hardAlpha"/>
<feOffset dx="-0.34375" dy="0.6875"/>
<feGaussianBlur stdDeviation="0.34375"/>
<feComposite in2="hardAlpha" operator="arithmetic" k2="-1" k3="1"/>
<feColorMatrix type="matrix" values="0 0 0 0 0 0 0 0 0 0 0 0 0 0 0 0 0 0 0.16 0"/>
<feBlend mode="normal" in2="shape" result="effect2_innerShadow_4296_187500"/>
</filter>
<filter id="filter1_d_4296_187500" x="5.5" y="10" width="20.6338" height="13.9424" filterUnits="userSpaceOnUse" color-interpolation-filters="sRGB">
<feFlood flood-opacity="0" result="BackgroundImageFix"/>
<feColorMatrix in="SourceAlpha" type="matrix" values="0 0 0 0 0 0 0 0 0 0 0 0 0 0 0 0 0 0 127 0" result="hardAlpha"/>
<feOffset dy="1"/>
<feGaussianBlur stdDeviation="0.5"/>
<feComposite in2="hardAlpha" operator="out"/>
<feColorMatrix type="matrix" values="0 0 0 0 0 0 0 0 0 0 0 0 0 0 0 0 0 0 0.1 0"/>
<feBlend mode="normal" in2="BackgroundImageFix" result="effect1_dropShadow_4296_187500"/>
<feBlend mode="normal" in="SourceGraphic" in2="effect1_dropShadow_4296_187500" result="shape"/>
</filter>
<clipPath id="clip0_4296_187500">
<rect width="32" height="32" fill="white"/>
</clipPath>
</defs>
</svg>
