<svg width="23" height="22" viewBox="0 0 23 22" fill="none" xmlns="http://www.w3.org/2000/svg">
<g clip-path="url(#clip0_534_73934)">
<path d="M22.0146 13.6612C20.5454 19.5541 14.5758 23.1404 8.68188 21.6709C2.79001 20.2017 -0.796678 14.2328 0.673197 8.34027C2.14204 2.44667 8.11126 -1.14001 14.0038 0.329174C19.8974 1.79836 23.4838 7.76792 22.0146 13.6612Z" fill="#2775CA"/>
<path fill-rule="evenodd" clip-rule="evenodd" d="M11.3438 22C17.4189 22 22.3438 17.0751 22.3438 11C22.3438 4.92487 17.4189 0 11.3438 0C5.26862 0 0.34375 4.92487 0.34375 11C0.34375 17.0751 5.26862 22 11.3438 22ZM11.3438 20C16.3143 20 20.3438 15.9706 20.3438 11C20.3438 6.02944 16.3143 2 11.3438 2C6.37319 2 2.34375 6.02944 2.34375 11C2.34375 15.9706 6.37319 20 11.3438 20Z" fill="white" fill-opacity="0.24"/>
<path opacity="0.4" d="M21.6873 7.26238L0.485446 12.7634C0.246441 11.2917 0.310307 9.7866 0.673133 8.34038C2.14129 2.44679 8.11085 -1.14025 14.0034 0.329286C17.6953 1.2495 20.4817 3.93522 21.6873 7.26272V7.26238Z" fill="white"/>
<g filter="url(#filter0_di_534_73934)">
<path d="M20.014 13.1622C18.8202 17.95 13.9702 20.864 9.18107 19.6694C4.39401 18.4766 1.4797 13.627 2.67388 8.8389C3.86738 4.05046 8.7177 1.13615 13.5054 2.33C18.2935 3.5235 21.2079 8.37381 20.014 13.1622Z" fill="#2775CA"/>
</g>
<g filter="url(#filter1_d_534_73934)">
<path d="M6.54432 9.30428C5.5502 11.9443 6.92142 14.9267 9.59545 15.8864C9.69823 15.9552 9.80101 16.092 9.80101 16.1951V16.675C9.80101 16.7437 9.80101 16.7781 9.76664 16.8121C9.73226 16.9493 9.59545 17.0177 9.45829 16.9493C7.53845 16.3322 6.06445 14.8579 5.44707 12.9381C4.41892 9.68138 6.20161 6.21913 9.45829 5.19063C9.49267 5.15625 9.56107 5.15625 9.59545 5.15625C9.73261 5.19063 9.80101 5.29341 9.80101 5.43056V5.91044C9.80101 6.08197 9.73226 6.18475 9.59545 6.25316C8.18986 6.76741 7.05857 7.86466 6.54432 9.30428ZM12.9209 5.32778C12.9553 5.19028 13.0921 5.12187 13.2292 5.19028C15.1147 5.80766 16.6231 7.28166 17.2404 9.23588C18.2686 12.4926 16.4859 15.9552 13.2292 16.9837C13.1949 17.018 13.1264 17.018 13.0921 17.018C12.9549 16.9837 12.8865 16.8805 12.8865 16.7437V16.2635C12.8865 16.0923 12.9553 15.9892 13.0921 15.9208C14.4977 15.4065 15.629 14.3096 16.1432 12.8697C17.1373 10.2297 15.7661 7.24728 13.0921 6.28753C12.9893 6.21878 12.8865 6.08197 12.8865 5.94481V5.46494C12.8865 5.39619 12.8865 5.36181 12.9209 5.32744V5.32778Z" fill="white"/>
<path d="M11.4471 10.5048C12.8868 10.676 13.6066 11.0875 13.6066 12.2875C13.6066 13.2129 12.9211 13.933 11.8926 14.1042V14.9272C11.8583 15.0984 11.7551 15.2015 11.6183 15.2015H11.1041C10.9325 15.1671 10.8298 15.064 10.8298 14.9272V14.1042C9.69848 13.933 9.14985 13.3157 9.0127 12.4587V12.4243C9.0127 12.2875 9.11582 12.1844 9.25263 12.1844H9.83563C9.93876 12.1844 10.0412 12.2531 10.0756 12.3903C10.1787 12.9045 10.487 13.2816 11.3784 13.2816C12.0298 13.2816 12.5093 12.9045 12.5093 12.3559C12.5093 11.8073 12.201 11.6017 11.2409 11.4305C9.80126 11.2587 9.11582 10.8132 9.11582 9.68189C9.11582 8.82492 9.76688 8.13914 10.7954 8.00198V7.21377C10.8298 7.04223 10.9329 6.93945 11.0697 6.93945H11.5839C11.7555 6.97383 11.8583 7.07661 11.8583 7.21377V8.03636C12.2344 8.06798 12.5895 8.22296 12.8685 8.4772C13.1475 8.73144 13.3347 9.07071 13.401 9.4423V9.47633C13.401 9.61348 13.2979 9.71626 13.1611 9.71626H12.6124C12.5597 9.71565 12.5084 9.69887 12.4655 9.6682C12.4226 9.63753 12.3902 9.59443 12.3725 9.54473C12.201 9.03048 11.8583 8.82492 11.2412 8.82492C10.5554 8.82492 10.2127 9.13327 10.2127 9.61348C10.2127 10.0934 10.4183 10.3677 11.4468 10.5048H11.4471Z" fill="white"/>
</g>
</g>
<defs>
<filter id="filter0_di_534_73934" x="2.0625" y="2.0625" width="18.2192" height="18.5623" filterUnits="userSpaceOnUse" color-interpolation-filters="sRGB">
<feFlood flood-opacity="0" result="BackgroundImageFix"/>
<feColorMatrix in="SourceAlpha" type="matrix" values="0 0 0 0 0 0 0 0 0 0 0 0 0 0 0 0 0 0 127 0" result="hardAlpha"/>
<feOffset dx="-0.34375" dy="0.34375"/>
<feColorMatrix type="matrix" values="0 0 0 0 1 0 0 0 0 1 0 0 0 0 1 0 0 0 0.32 0"/>
<feBlend mode="normal" in2="BackgroundImageFix" result="effect1_dropShadow_534_73934"/>
<feBlend mode="normal" in="SourceGraphic" in2="effect1_dropShadow_534_73934" result="shape"/>
<feColorMatrix in="SourceAlpha" type="matrix" values="0 0 0 0 0 0 0 0 0 0 0 0 0 0 0 0 0 0 127 0" result="hardAlpha"/>
<feOffset dx="-0.34375" dy="0.6875"/>
<feGaussianBlur stdDeviation="0.34375"/>
<feComposite in2="hardAlpha" operator="arithmetic" k2="-1" k3="1"/>
<feColorMatrix type="matrix" values="0 0 0 0 0 0 0 0 0 0 0 0 0 0 0 0 0 0 0.16 0"/>
<feBlend mode="normal" in2="shape" result="effect2_innerShadow_534_73934"/>
</filter>
<filter id="filter1_d_534_73934" x="4.46875" y="5.15625" width="13.0625" height="12.5493" filterUnits="userSpaceOnUse" color-interpolation-filters="sRGB">
<feFlood flood-opacity="0" result="BackgroundImageFix"/>
<feColorMatrix in="SourceAlpha" type="matrix" values="0 0 0 0 0 0 0 0 0 0 0 0 0 0 0 0 0 0 127 0" result="hardAlpha"/>
<feOffset dx="-0.34375" dy="0.34375"/>
<feGaussianBlur stdDeviation="0.171875"/>
<feColorMatrix type="matrix" values="0 0 0 0 0 0 0 0 0 0 0 0 0 0 0 0 0 0 0.08 0"/>
<feBlend mode="normal" in2="BackgroundImageFix" result="effect1_dropShadow_534_73934"/>
<feBlend mode="normal" in="SourceGraphic" in2="effect1_dropShadow_534_73934" result="shape"/>
</filter>
<clipPath id="clip0_534_73934">
<rect width="22" height="22" fill="white" transform="translate(0.34375)"/>
</clipPath>
</defs>
</svg>
