<svg width="40" height="40" viewBox="0 0 40 40" fill="none" xmlns="http://www.w3.org/2000/svg">
<circle r="20" transform="matrix(-1 0 0 1 20 20)" fill="url(#paint0_linear_5259_269623)"/>
<path d="M28.317 12.4921C26.7873 11.8015 25.147 11.2926 23.4319 11.0012C23.4007 10.9956 23.3695 11.0097 23.3534 11.0378C23.1424 11.407 22.9087 11.8886 22.7451 12.2672C20.9004 11.9955 19.0652 11.9955 17.2583 12.2672C17.0946 11.8802 16.8525 11.407 16.6406 11.0378C16.6245 11.0106 16.5933 10.9965 16.5621 11.0012C14.8479 11.2917 13.2076 11.8005 11.6769 12.4921C11.6637 12.4977 11.6523 12.5071 11.6448 12.5193C8.53339 17.0931 7.68105 21.5545 8.09918 25.9606C8.10107 25.9822 8.11337 26.0028 8.1304 26.0159C10.1832 27.4993 12.1717 28.3998 14.1233 28.9967C14.1545 29.0061 14.1876 28.9949 14.2075 28.9695C14.6691 28.3492 15.0806 27.6952 15.4335 27.0073C15.4543 26.967 15.4344 26.9192 15.3919 26.9033C14.7391 26.6597 14.1176 26.3626 13.5197 26.0253C13.4724 25.9981 13.4687 25.9316 13.5122 25.8997C13.638 25.8069 13.7638 25.7104 13.884 25.613C13.9057 25.5952 13.936 25.5914 13.9615 25.6026C17.8893 27.3672 22.1415 27.3672 26.023 25.6026C26.0485 25.5905 26.0788 25.5942 26.1015 25.612C26.2216 25.7095 26.3475 25.8069 26.4742 25.8997C26.5177 25.9316 26.5149 25.9981 26.4676 26.0253C25.8697 26.3692 25.2482 26.6597 24.5945 26.9024C24.552 26.9183 24.533 26.967 24.5538 27.0073C24.9143 27.6942 25.3258 28.3483 25.7789 28.9686C25.7978 28.9949 25.8319 29.0061 25.8631 28.9967C27.8241 28.3998 29.8126 27.4993 31.8654 26.0159C31.8834 26.0028 31.8948 25.9831 31.8967 25.9616C32.3971 20.8676 31.0585 16.4428 28.3482 12.5202C28.3416 12.5071 28.3303 12.4977 28.317 12.4921ZM16.02 23.2778C14.8375 23.2778 13.8631 22.2095 13.8631 20.8976C13.8631 19.5857 14.8186 18.5175 16.02 18.5175C17.2309 18.5175 18.1958 19.5951 18.1769 20.8976C18.1769 22.2095 17.2214 23.2778 16.02 23.2778ZM23.9947 23.2778C22.8123 23.2778 21.8379 22.2095 21.8379 20.8976C21.8379 19.5857 22.7933 18.5175 23.9947 18.5175C25.2056 18.5175 26.1705 19.5951 26.1516 20.8976C26.1516 22.2095 25.2056 23.2778 23.9947 23.2778Z" fill="#E0E0E0"/>
<defs>
<linearGradient id="paint0_linear_5259_269623" x1="20" y1="0" x2="20" y2="40" gradientUnits="userSpaceOnUse">
<stop stop-color="#343D59"/>
<stop offset="1" stop-color="#1C1F2F"/>
</linearGradient>
</defs>
</svg>
