<svg width="40" height="40" viewBox="0 0 40 40" fill="none" xmlns="http://www.w3.org/2000/svg">
<path d="M20 0C8.9543 0 0 8.9543 0 20C0 31.0457 8.9543 40 20 40C31.0457 40 40 31.0457 40 20C40 14.6957 37.8929 9.60859 34.1421 5.85786C30.3914 2.10714 25.3043 0 20 0Z" fill="url(#paint0_linear_5259_269618)"/>
<path d="M25.5992 9.36029V12.8824H23.5277C22.7712 12.8824 22.261 13.0425 21.9971 13.3627C21.7332 13.6829 21.6013 14.1632 21.6013 14.8036V17.3251H25.4673L24.9527 21.2741H21.6013V31.4002H17.5638V21.2741H14.1992V17.3251H17.5638V14.4167C17.5638 12.7623 18.0212 11.4793 18.936 10.5677C19.8508 9.65602 21.0691 9.2002 22.5909 9.2002C23.8839 9.2002 24.8867 9.25356 25.5992 9.36029Z" fill="#E0E0E0"/>
<defs>
<linearGradient id="paint0_linear_5259_269618" x1="20" y1="0" x2="20" y2="40" gradientUnits="userSpaceOnUse">
<stop stop-color="#343D59"/>
<stop offset="1" stop-color="#1C1F2F"/>
</linearGradient>
</defs>
</svg>
