<svg width="40" height="40" viewBox="0 0 40 40" fill="none" xmlns="http://www.w3.org/2000/svg">
<path d="M20 0C8.9543 0 0 8.9543 0 20C0 31.0457 8.9543 40 20 40C31.0457 40 40 31.0457 40 20C40 14.6957 37.8929 9.60859 34.1421 5.85786C30.3914 2.10714 25.3043 0 20 0Z" fill="black"/>
<path d="M20 0C8.9543 0 0 8.9543 0 20C0 31.0457 8.9543 40 20 40C31.0457 40 40 31.0457 40 20C40 14.6957 37.8929 9.60859 34.1421 5.85786C30.3914 2.10714 25.3043 0 20 0Z" fill="url(#paint0_linear_5259_269622)"/>
<path d="M17.4343 17.6809V16.8355C17.1437 16.7993 16.8531 16.7755 16.5503 16.7755C12.9443 16.7755 10 19.7362 10 23.3901C10 25.623 11.1049 27.6087 12.7923 28.8071C11.6615 27.5876 11.0333 25.9783 11.0359 24.3071C11.0468 20.6997 13.8973 17.7635 17.4343 17.6802V17.6809ZM28.0441 14.8962V14.096C27.0855 14.0981 26.1472 13.8166 25.345 13.2861C26.0533 14.098 26.9984 14.6616 28.0441 14.8956V14.8969V14.8962Z" fill="white"/>
<path d="M17.586 27.3021C18.3573 27.3007 19.0982 26.9978 19.6534 26.4568C20.2087 25.9159 20.5353 25.1789 20.5648 24.4001V10.0072H23.1706C23.1137 9.7052 23.0865 9.39824 23.0895 9.09082H19.5289V23.4837C19.4993 24.2624 19.1728 24.9993 18.6177 25.5403C18.0626 26.0812 17.3219 26.3842 16.5507 26.3858C16.0506 26.3858 15.5735 26.2567 15.166 26.0334C15.4397 26.425 15.8024 26.7445 16.2236 26.9653C16.6447 27.186 17.1122 27.3016 17.5866 27.3021H17.586V27.3021Z" fill="white"/>
<path d="M16.5509 20.359C15.7583 20.3586 14.9981 20.6763 14.4374 21.2422C13.8766 21.8081 13.5612 22.5758 13.5605 23.3765V23.3785C13.5605 24.5407 14.212 25.5404 15.1662 26.0456C14.7992 25.5327 14.5998 24.9168 14.5959 24.2839C14.5958 23.8874 14.673 23.4947 14.8231 23.1283C14.9732 22.7619 15.1932 22.429 15.4707 22.1486C15.7481 21.8681 16.0775 21.6456 16.4401 21.4938C16.8026 21.342 17.1912 21.2638 17.5836 21.2637H17.5862C17.8889 21.2637 18.191 21.3102 18.4701 21.4044V17.7389C18.1795 17.7034 17.8889 17.6808 17.5862 17.6808H17.4348V20.5009C17.1497 20.4055 16.8512 20.3576 16.5509 20.359ZM25.3583 13.2861C24.572 12.3787 24.1379 11.2139 24.1365 10.0078H23.1823C23.3089 10.6738 23.5668 11.3072 23.9406 11.8704C24.3144 12.4336 24.7966 12.9151 25.3583 13.2861V13.2861Z" fill="#888888"/>
<path d="M28.0437 14.8962V17.6917C26.194 17.6917 24.4951 17.0929 23.099 16.0823V23.3791C23.099 27.0213 20.1674 29.9937 16.5486 29.9937C15.1525 29.9937 13.861 29.5485 12.8027 28.7954C14.0009 30.088 15.6992 30.9095 17.5961 30.9095C21.2027 30.9095 24.1464 27.95 24.1464 24.2948V16.9987C25.5869 18.0446 27.3159 18.6076 29.0898 18.6081V15.0136C28.7384 15.0043 28.3884 14.9648 28.0437 14.8955V14.8962Z" fill="#888888"/>
<path d="M23.0984 23.3791V16.083C24.5392 17.1293 26.2687 17.6922 28.0431 17.6924V14.8962C26.9963 14.665 26.0505 14.1006 25.3446 13.2861C24.7805 12.9189 24.2972 12.4384 23.9247 11.8744C23.5522 11.3105 23.2986 10.6751 23.1795 10.0078H20.5737V24.4007C20.5445 25.1795 20.2181 25.9166 19.6629 26.4576C19.1077 26.9986 18.3668 27.3015 17.5955 27.3028C17.1218 27.3046 16.6547 27.1914 16.2334 26.9726C15.8121 26.7538 15.4491 26.4359 15.1749 26.0456C14.6922 25.7912 14.2875 25.4083 14.0045 24.9383C13.7215 24.4684 13.571 23.9292 13.5692 23.3791C13.5692 22.5784 13.884 21.8104 14.4442 21.244C15.0045 20.6777 15.7645 20.3593 16.557 20.359H16.5595C16.8616 20.359 17.1644 20.4067 17.4435 20.5009V17.6808C13.9064 17.7628 11.0566 20.701 11.0566 24.2839C11.0566 26.0231 11.7196 27.6093 12.813 28.7838C13.9102 29.5631 15.2184 29.9816 16.5595 29.9822C20.1541 29.9938 23.0984 27.022 23.0984 23.3791Z" fill="#E0E0E0"/>
<defs>
<linearGradient id="paint0_linear_5259_269622" x1="20" y1="0" x2="20" y2="40" gradientUnits="userSpaceOnUse">
<stop stop-color="#343D59"/>
<stop offset="1" stop-color="#1C1F2F"/>
</linearGradient>
</defs>
</svg>
