<svg width="40" height="40" viewBox="0 0 40 40" fill="none" xmlns="http://www.w3.org/2000/svg">
<path d="M20 0C8.9543 0 0 8.9543 0 20C0 31.0457 8.9543 40 20 40C31.0457 40 40 31.0457 40 20C40 14.6957 37.8929 9.60859 34.1421 5.85786C30.3914 2.10714 25.3043 0 20 0Z" fill="url(#paint0_linear_5259_269619)"/>
<path d="M31.0163 13.1584C30.1992 13.5288 29.3326 13.7721 28.4453 13.8802C29.3806 13.307 30.0805 12.4047 30.4148 11.3417C29.5371 11.877 28.5748 12.2522 27.5719 12.4552C26.8982 11.7164 26.0053 11.2264 25.0319 11.0615C24.0585 10.8965 23.0592 11.0658 22.1894 11.5429C21.3195 12.0201 20.6278 12.7785 20.2219 13.7001C19.8159 14.6217 19.7184 15.655 19.9445 16.6393C18.1647 16.5479 16.4234 16.0738 14.8339 15.2479C13.2444 14.422 11.8421 13.2627 10.7181 11.8452C10.3202 12.5456 10.1111 13.3418 10.1122 14.1523C10.1122 15.743 10.9022 17.1483 12.1031 17.9711C11.3924 17.9482 10.6973 17.7515 10.0758 17.3974V17.4544C10.0761 18.5138 10.4337 19.5406 11.0882 20.3605C11.7427 21.1805 12.6538 21.7433 13.6669 21.9534C13.0071 22.1366 12.3154 22.1636 11.6439 22.0324C11.9296 22.9443 12.4863 23.7418 13.2362 24.3133C13.986 24.8847 14.8915 25.2015 15.8258 25.2193C14.8972 25.9667 13.8341 26.5193 12.697 26.8453C11.56 27.1713 10.3714 27.2645 9.19922 27.1194C11.2454 28.4681 13.6274 29.1841 16.0602 29.1818C24.2945 29.1818 28.7975 22.1903 28.7975 16.127C28.7975 15.9295 28.7921 15.7299 28.7836 15.5346C29.66 14.8853 30.4165 14.081 31.0174 13.1595L31.0163 13.1584Z" fill="#E0E0E0"/>
<defs>
<linearGradient id="paint0_linear_5259_269619" x1="20" y1="0" x2="20" y2="40" gradientUnits="userSpaceOnUse">
<stop stop-color="#343D59"/>
<stop offset="1" stop-color="#1C1F2F"/>
</linearGradient>
</defs>
</svg>
