<svg width="40" height="40" viewBox="0 0 40 40" fill="none" xmlns="http://www.w3.org/2000/svg">
<path d="M20 0C8.9543 0 0 8.9543 0 20C0 31.0457 8.9543 40 20 40C31.0457 40 40 31.0457 40 20C40 14.6957 37.8929 9.60859 34.1421 5.85786C30.3914 2.10714 25.3043 0 20 0Z" fill="url(#paint0_linear_5259_269621)"/>
<path d="M30.7683 15.4318C30.7683 13.5143 29.3576 11.9718 27.6145 11.9718C25.2534 11.861 22.8454 11.8184 20.3862 11.8184C20.2584 11.8184 20.1305 11.8184 20.0027 11.8184C19.8748 11.8184 19.7469 11.8184 19.6191 11.8184C17.1642 11.8184 14.7519 11.861 12.3908 11.9718C10.6519 11.9718 9.24123 13.5228 9.24123 15.4403C9.13468 16.9573 9.0878 18.4742 9.09206 19.9912C9.0878 21.5082 9.13468 23.0251 9.23697 24.5463C9.23697 26.4639 10.6477 28.0192 12.3866 28.0192C14.867 28.1342 17.4114 28.1853 19.9984 28.1811C22.5897 28.1896 25.1255 28.1385 27.6102 28.0192C29.3534 28.0192 30.7641 26.4639 30.7641 24.5463C30.8664 23.0251 30.9133 21.5082 30.909 19.9869C30.9175 18.47 30.8706 16.953 30.7683 15.4318ZM17.9143 24.1714V15.7983L24.0941 19.9827L17.9143 24.1714Z" fill="#E0E0E0"/>
<defs>
<linearGradient id="paint0_linear_5259_269621" x1="20" y1="0" x2="20" y2="40" gradientUnits="userSpaceOnUse">
<stop stop-color="#343D59"/>
<stop offset="1" stop-color="#1C1F2F"/>
</linearGradient>
</defs>
</svg>
