<svg width="32" height="32" viewBox="0 0 32 32" fill="none" xmlns="http://www.w3.org/2000/svg">
<g clip-path="url(#clip0_4296_187511)">
<path d="M30.6663 16.0007C30.6663 7.90048 24.0999 1.33398 15.9997 1.33398C7.8995 1.33398 1.33301 7.90048 1.33301 16.0007C1.33301 24.1008 7.8995 30.6673 15.9997 30.6673C24.0999 30.6673 30.6663 24.1008 30.6663 16.0007Z" fill="url(#paint0_linear_4296_187511)"/>
<path d="M30.6663 16.0007C30.6663 7.90048 24.0999 1.33398 15.9997 1.33398C7.8995 1.33398 1.33301 7.90048 1.33301 16.0007C1.33301 24.1008 7.8995 30.6673 15.9997 30.6673C24.0999 30.6673 30.6663 24.1008 30.6663 16.0007Z" fill="url(#paint1_linear_4296_187511)"/>
<path d="M30.6663 16.0007C30.6663 7.90048 24.0999 1.33398 15.9997 1.33398C7.8995 1.33398 1.33301 7.90048 1.33301 16.0007C1.33301 24.1008 7.8995 30.6673 15.9997 30.6673C24.0999 30.6673 30.6663 24.1008 30.6663 16.0007Z" fill="url(#paint2_linear_4296_187511)"/>
<path d="M30.6663 16.0007C30.6663 7.90048 24.0999 1.33398 15.9997 1.33398C7.8995 1.33398 1.33301 7.90048 1.33301 16.0007C1.33301 24.1008 7.8995 30.6673 15.9997 30.6673C24.0999 30.6673 30.6663 24.1008 30.6663 16.0007Z" fill="url(#paint3_linear_4296_187511)"/>
<g filter="url(#filter0_f_4296_187511)">
<path d="M16.2826 34.0516C26.6156 34.0516 34.992 25.6751 34.992 15.3422C34.992 5.0093 26.6156 -3.36719 16.2826 -3.36719C5.94973 -3.36719 -2.42676 5.0093 -2.42676 15.3422C-2.42676 25.6751 5.94973 34.0516 16.2826 34.0516Z" fill="url(#paint4_linear_4296_187511)"/>
<path d="M16.2826 34.0516C26.6156 34.0516 34.992 25.6751 34.992 15.3422C34.992 5.0093 26.6156 -3.36719 16.2826 -3.36719C5.94973 -3.36719 -2.42676 5.0093 -2.42676 15.3422C-2.42676 25.6751 5.94973 34.0516 16.2826 34.0516Z" fill="url(#paint5_linear_4296_187511)"/>
</g>
<g filter="url(#filter1_f_4296_187511)">
<path d="M10.9703 43.3594C19.6156 43.3594 26.6241 36.351 26.6241 27.7056C26.6241 19.0602 19.6156 12.0518 10.9703 12.0518C2.32487 12.0518 -4.68359 19.0602 -4.68359 27.7056C-4.68359 36.351 2.32487 43.3594 10.9703 43.3594Z" fill="url(#paint6_linear_4296_187511)"/>
<path d="M10.9703 43.3594C19.6156 43.3594 26.6241 36.351 26.6241 27.7056C26.6241 19.0602 19.6156 12.0518 10.9703 12.0518C2.32487 12.0518 -4.68359 19.0602 -4.68359 27.7056C-4.68359 36.351 2.32487 43.3594 10.9703 43.3594Z" fill="url(#paint7_linear_4296_187511)"/>
</g>
<g filter="url(#filter2_f_4296_187511)">
<path d="M10.5943 43.2649C17.7339 43.2649 23.5217 37.4771 23.5217 30.3375C23.5217 23.1979 17.7339 17.4102 10.5943 17.4102C3.45476 17.4102 -2.33301 23.1979 -2.33301 30.3375C-2.33301 37.4771 3.45476 43.2649 10.5943 43.2649Z" fill="url(#paint8_linear_4296_187511)"/>
<path d="M10.5943 43.2649C17.7339 43.2649 23.5217 37.4771 23.5217 30.3375C23.5217 23.1979 17.7339 17.4102 10.5943 17.4102C3.45476 17.4102 -2.33301 23.1979 -2.33301 30.3375C-2.33301 37.4771 3.45476 43.2649 10.5943 43.2649Z" fill="url(#paint9_linear_4296_187511)"/>
</g>
<g filter="url(#filter3_f_4296_187511)">
<path d="M10.8763 41.2907C16.8216 41.2907 21.6412 36.471 21.6412 30.5257C21.6412 24.5804 16.8216 19.7607 10.8763 19.7607C4.93096 19.7607 0.111328 24.5804 0.111328 30.5257C0.111328 36.471 4.93096 41.2907 10.8763 41.2907Z" fill="url(#paint10_linear_4296_187511)"/>
<path d="M10.8763 41.2907C16.8216 41.2907 21.6412 36.471 21.6412 30.5257C21.6412 24.5804 16.8216 19.7607 10.8763 19.7607C4.93096 19.7607 0.111328 24.5804 0.111328 30.5257C0.111328 36.471 4.93096 41.2907 10.8763 41.2907Z" fill="url(#paint11_linear_4296_187511)"/>
</g>
<g filter="url(#filter4_f_4296_187511)">
<path d="M10.8757 41.2905C16.146 41.2905 20.4185 37.0181 20.4185 31.7478C20.4185 26.4775 16.146 22.2051 10.8757 22.2051C5.60543 22.2051 1.33301 26.4775 1.33301 31.7478C1.33301 37.0181 5.60543 41.2905 10.8757 41.2905Z" fill="url(#paint12_linear_4296_187511)"/>
<path d="M10.8757 41.2905C16.146 41.2905 20.4185 37.0181 20.4185 31.7478C20.4185 26.4775 16.146 22.2051 10.8757 22.2051C5.60543 22.2051 1.33301 26.4775 1.33301 31.7478C1.33301 37.0181 5.60543 41.2905 10.8757 41.2905Z" fill="url(#paint13_linear_4296_187511)"/>
</g>
<g filter="url(#filter5_f_4296_187511)">
<path d="M10.7824 41.2904C15.3777 41.2904 19.1029 37.5652 19.1029 32.9699C19.1029 28.3746 15.3777 24.6494 10.7824 24.6494C6.18713 24.6494 2.46191 28.3746 2.46191 32.9699C2.46191 37.5652 6.18713 41.2904 10.7824 41.2904Z" fill="url(#paint14_linear_4296_187511)"/>
<path d="M10.7824 41.2904C15.3777 41.2904 19.1029 37.5652 19.1029 32.9699C19.1029 28.3746 15.3777 24.6494 10.7824 24.6494C6.18713 24.6494 2.46191 28.3746 2.46191 32.9699C2.46191 37.5652 6.18713 41.2904 10.7824 41.2904Z" fill="url(#paint15_linear_4296_187511)"/>
</g>
<g filter="url(#filter6_d_4296_187511)">
<path d="M19.3617 8.05176C21.8953 8.05176 23.9492 10.1138 23.9492 12.6393V19.3617C23.9492 21.8953 21.8872 23.9492 19.3617 23.9492H12.6393C10.1057 23.9492 8.05176 21.8872 8.05176 19.3617V12.6393C8.05176 10.1057 10.1138 8.05176 12.6393 8.05176H19.3617ZM19.2248 9.49075H12.7761C10.9589 9.49075 9.49075 10.9617 9.49075 12.7761V19.2248C9.49075 21.042 10.9617 22.5102 12.7761 22.5102H19.2248C21.042 22.5102 22.5102 21.0393 22.5102 19.2248V12.7761C22.5102 10.9589 21.0393 9.49075 19.2248 9.49075Z" fill="black"/>
</g>
<path d="M19.3617 8.05176C21.8953 8.05176 23.9492 10.1138 23.9492 12.6393V19.3617C23.9492 21.8953 21.8872 23.9492 19.3617 23.9492H12.6393C10.1057 23.9492 8.05176 21.8872 8.05176 19.3617V12.6393C8.05176 10.1057 10.1138 8.05176 12.6393 8.05176H19.3617ZM19.2248 9.49075H12.7761C10.9589 9.49075 9.49075 10.9617 9.49075 12.7761V19.2248C9.49075 21.042 10.9617 22.5102 12.7761 22.5102H19.2248C21.042 22.5102 22.5102 21.0393 22.5102 19.2248V12.7761C22.5102 10.9589 21.0393 9.49075 19.2248 9.49075Z" fill="#E0E0E0"/>
<g filter="url(#filter7_d_4296_187511)">
<path d="M15.9999 11.958C18.2327 11.958 20.0428 13.7681 20.0428 16.0009C20.0428 18.2337 18.2327 20.0438 15.9999 20.0438C13.7671 20.0438 11.957 18.2337 11.957 16.0009C11.957 13.7681 13.7671 11.958 15.9999 11.958ZM15.9999 13.397C14.5618 13.397 13.396 14.5628 13.396 16.0009C13.396 17.439 14.5618 18.6048 15.9999 18.6048C17.438 18.6048 18.6038 17.439 18.6038 16.0009C18.6038 14.5628 17.438 13.397 15.9999 13.397Z" fill="black"/>
</g>
<path d="M15.9999 11.958C18.2327 11.958 20.0428 13.7681 20.0428 16.0009C20.0428 18.2337 18.2327 20.0438 15.9999 20.0438C13.7671 20.0438 11.957 18.2337 11.957 16.0009C11.957 13.7681 13.7671 11.958 15.9999 11.958ZM15.9999 13.397C14.5618 13.397 13.396 14.5628 13.396 16.0009C13.396 17.439 14.5618 18.6048 15.9999 18.6048C17.438 18.6048 18.6038 17.439 18.6038 16.0009C18.6038 14.5628 17.438 13.397 15.9999 13.397Z" fill="#E0E0E0"/>
<path d="M20.18 12.7116C20.7099 12.7116 21.1394 12.2821 21.1394 11.7523C21.1394 11.2225 20.7099 10.793 20.18 10.793C19.6502 10.793 19.2207 11.2225 19.2207 11.7523C19.2207 12.2821 19.6502 12.7116 20.18 12.7116Z" fill="#E0E0E0"/>
</g>
<defs>
<filter id="filter0_f_4296_187511" x="-4.99086" y="-5.93129" width="42.5472" height="42.5472" filterUnits="userSpaceOnUse" color-interpolation-filters="sRGB">
<feFlood flood-opacity="0" result="BackgroundImageFix"/>
<feBlend mode="normal" in="SourceGraphic" in2="BackgroundImageFix" result="shape"/>
<feGaussianBlur stdDeviation="1.28205" result="effect1_foregroundBlur_4296_187511"/>
</filter>
<filter id="filter1_f_4296_187511" x="-17.5041" y="-0.768755" width="56.9486" height="56.9486" filterUnits="userSpaceOnUse" color-interpolation-filters="sRGB">
<feFlood flood-opacity="0" result="BackgroundImageFix"/>
<feBlend mode="normal" in="SourceGraphic" in2="BackgroundImageFix" result="shape"/>
<feGaussianBlur stdDeviation="6.41026" result="effect1_foregroundBlur_4296_187511"/>
</filter>
<filter id="filter2_f_4296_187511" x="-8.48685" y="11.2563" width="38.1622" height="38.1622" filterUnits="userSpaceOnUse" color-interpolation-filters="sRGB">
<feFlood flood-opacity="0" result="BackgroundImageFix"/>
<feBlend mode="normal" in="SourceGraphic" in2="BackgroundImageFix" result="shape"/>
<feGaussianBlur stdDeviation="3.07692" result="effect1_foregroundBlur_4296_187511"/>
</filter>
<filter id="filter3_f_4296_187511" x="-5.34361" y="14.3058" width="32.4401" height="32.4401" filterUnits="userSpaceOnUse" color-interpolation-filters="sRGB">
<feFlood flood-opacity="0" result="BackgroundImageFix"/>
<feBlend mode="normal" in="SourceGraphic" in2="BackgroundImageFix" result="shape"/>
<feGaussianBlur stdDeviation="2.72747" result="effect1_foregroundBlur_4296_187511"/>
</filter>
<filter id="filter4_f_4296_187511" x="-4.82084" y="16.0512" width="31.3936" height="31.3936" filterUnits="userSpaceOnUse" color-interpolation-filters="sRGB">
<feFlood flood-opacity="0" result="BackgroundImageFix"/>
<feBlend mode="normal" in="SourceGraphic" in2="BackgroundImageFix" result="shape"/>
<feGaussianBlur stdDeviation="3.07692" result="effect1_foregroundBlur_4296_187511"/>
</filter>
<filter id="filter5_f_4296_187511" x="-9.94385" y="12.2437" width="41.4521" height="41.4521" filterUnits="userSpaceOnUse" color-interpolation-filters="sRGB">
<feFlood flood-opacity="0" result="BackgroundImageFix"/>
<feBlend mode="normal" in="SourceGraphic" in2="BackgroundImageFix" result="shape"/>
<feGaussianBlur stdDeviation="6.20288" result="effect1_foregroundBlur_4296_187511"/>
</filter>
<filter id="filter6_d_4296_187511" x="7.05176" y="7.05176" width="17.8975" height="17.8975" filterUnits="userSpaceOnUse" color-interpolation-filters="sRGB">
<feFlood flood-opacity="0" result="BackgroundImageFix"/>
<feColorMatrix in="SourceAlpha" type="matrix" values="0 0 0 0 0 0 0 0 0 0 0 0 0 0 0 0 0 0 127 0" result="hardAlpha"/>
<feOffset/>
<feGaussianBlur stdDeviation="0.5"/>
<feColorMatrix type="matrix" values="0 0 0 0 0 0 0 0 0 0 0 0 0 0 0 0 0 0 0.0624717 0"/>
<feBlend mode="normal" in2="BackgroundImageFix" result="effect1_dropShadow_4296_187511"/>
<feBlend mode="normal" in="SourceGraphic" in2="effect1_dropShadow_4296_187511" result="shape"/>
</filter>
<filter id="filter7_d_4296_187511" x="10.957" y="10.958" width="10.0859" height="10.0859" filterUnits="userSpaceOnUse" color-interpolation-filters="sRGB">
<feFlood flood-opacity="0" result="BackgroundImageFix"/>
<feColorMatrix in="SourceAlpha" type="matrix" values="0 0 0 0 0 0 0 0 0 0 0 0 0 0 0 0 0 0 127 0" result="hardAlpha"/>
<feOffset/>
<feGaussianBlur stdDeviation="0.5"/>
<feColorMatrix type="matrix" values="0 0 0 0 0 0 0 0 0 0 0 0 0 0 0 0 0 0 0.05 0"/>
<feBlend mode="normal" in2="BackgroundImageFix" result="effect1_dropShadow_4296_187511"/>
<feBlend mode="normal" in="SourceGraphic" in2="effect1_dropShadow_4296_187511" result="shape"/>
</filter>
<linearGradient id="paint0_linear_4296_187511" x1="6.59522" y1="5.87059" x2="25.7273" y2="26.3271" gradientUnits="userSpaceOnUse">
<stop stop-color="#395DFA"/>
<stop offset="0.216535" stop-color="#544CED"/>
<stop offset="0.447644" stop-color="#903ACD"/>
<stop offset="0.683389" stop-color="#D53592"/>
<stop offset="1" stop-color="#F4306D"/>
</linearGradient>
<linearGradient id="paint1_linear_4296_187511" x1="16.1322" y1="3.86631" x2="16.4876" y2="23.1204" gradientUnits="userSpaceOnUse">
<stop stop-color="#343D59"/>
<stop offset="1" stop-color="#1C1F2F"/>
</linearGradient>
<linearGradient id="paint2_linear_4296_187511" x1="6.59522" y1="5.87059" x2="25.7273" y2="26.3271" gradientUnits="userSpaceOnUse">
<stop stop-color="#395DFA"/>
<stop offset="0.216535" stop-color="#544CED"/>
<stop offset="0.447644" stop-color="#903ACD"/>
<stop offset="0.683389" stop-color="#D53592"/>
<stop offset="1" stop-color="#F4306D"/>
</linearGradient>
<linearGradient id="paint3_linear_4296_187511" x1="16.1322" y1="3.86631" x2="16.4876" y2="23.1204" gradientUnits="userSpaceOnUse">
<stop stop-color="#343D59"/>
<stop offset="1" stop-color="#1C1F2F"/>
</linearGradient>
<linearGradient id="paint4_linear_4296_187511" x1="4.28593" y1="2.4199" x2="28.6916" y2="28.515" gradientUnits="userSpaceOnUse">
<stop stop-color="#395DFA"/>
<stop offset="0.216535" stop-color="#544CED"/>
<stop offset="0.447644" stop-color="#903ACD"/>
<stop offset="0.683389" stop-color="#D53592"/>
<stop offset="1" stop-color="#F4306D"/>
</linearGradient>
<linearGradient id="paint5_linear_4296_187511" x1="16.4517" y1="-0.136845" x2="16.9051" y2="24.4245" gradientUnits="userSpaceOnUse">
<stop stop-color="#343D59"/>
<stop offset="1" stop-color="#1C1F2F"/>
</linearGradient>
<linearGradient id="paint6_linear_4296_187511" x1="0.932805" y1="16.8937" x2="21.3526" y2="38.7271" gradientUnits="userSpaceOnUse">
<stop stop-color="#395DFA"/>
<stop offset="0.216535" stop-color="#544CED"/>
<stop offset="0.447644" stop-color="#903ACD"/>
<stop offset="0.683389" stop-color="#D53592"/>
<stop offset="1" stop-color="#F4306D"/>
</linearGradient>
<linearGradient id="paint7_linear_4296_187511" x1="11.1117" y1="14.7545" x2="11.491" y2="35.3046" gradientUnits="userSpaceOnUse">
<stop stop-color="#343D59"/>
<stop offset="1" stop-color="#1C1F2F"/>
</linearGradient>
<linearGradient id="paint8_linear_4296_187511" x1="2.30516" y1="21.4088" x2="19.1684" y2="39.4393" gradientUnits="userSpaceOnUse">
<stop stop-color="#395DFA"/>
<stop offset="0.216535" stop-color="#544CED"/>
<stop offset="0.447644" stop-color="#903ACD"/>
<stop offset="0.683389" stop-color="#D53592"/>
<stop offset="1" stop-color="#F4306D"/>
</linearGradient>
<linearGradient id="paint9_linear_4296_187511" x1="10.7112" y1="19.6422" x2="11.0244" y2="36.613" gradientUnits="userSpaceOnUse">
<stop stop-color="#343D59"/>
<stop offset="1" stop-color="#1C1F2F"/>
</linearGradient>
<linearGradient id="paint10_linear_4296_187511" x1="3.97366" y1="23.0905" x2="18.0161" y2="38.105" gradientUnits="userSpaceOnUse">
<stop stop-color="#395DFA"/>
<stop offset="0.216535" stop-color="#544CED"/>
<stop offset="0.447644" stop-color="#903ACD"/>
<stop offset="0.683389" stop-color="#D53592"/>
<stop offset="1" stop-color="#F4306D"/>
</linearGradient>
<linearGradient id="paint11_linear_4296_187511" x1="10.9736" y1="21.6194" x2="11.2344" y2="35.7514" gradientUnits="userSpaceOnUse">
<stop stop-color="#343D59"/>
<stop offset="1" stop-color="#1C1F2F"/>
</linearGradient>
<linearGradient id="paint12_linear_4296_187511" x1="4.75682" y1="25.1568" x2="17.2049" y2="38.4666" gradientUnits="userSpaceOnUse">
<stop stop-color="#395DFA"/>
<stop offset="0.216535" stop-color="#544CED"/>
<stop offset="0.447644" stop-color="#903ACD"/>
<stop offset="0.683389" stop-color="#D53592"/>
<stop offset="1" stop-color="#F4306D"/>
</linearGradient>
<linearGradient id="paint13_linear_4296_187511" x1="10.962" y1="23.8527" x2="11.1932" y2="36.3802" gradientUnits="userSpaceOnUse">
<stop stop-color="#343D59"/>
<stop offset="1" stop-color="#1C1F2F"/>
</linearGradient>
<linearGradient id="paint14_linear_4296_187511" x1="5.44721" y1="27.2231" x2="16.301" y2="38.8282" gradientUnits="userSpaceOnUse">
<stop stop-color="#395DFA"/>
<stop offset="0.216535" stop-color="#544CED"/>
<stop offset="0.447644" stop-color="#903ACD"/>
<stop offset="0.683389" stop-color="#D53592"/>
<stop offset="1" stop-color="#F4306D"/>
</linearGradient>
<linearGradient id="paint15_linear_4296_187511" x1="10.8576" y1="26.086" x2="11.0592" y2="37.009" gradientUnits="userSpaceOnUse">
<stop stop-color="#343D59"/>
<stop offset="1" stop-color="#1C1F2F"/>
</linearGradient>
<clipPath id="clip0_4296_187511">
<path d="M0 16C0 7.16344 7.16344 0 16 0C24.8366 0 32 7.16344 32 16C32 24.8366 24.8366 32 16 32C7.16344 32 0 24.8366 0 16Z" fill="white"/>
</clipPath>
</defs>
</svg>
