<svg width="74" height="48" viewBox="0 0 74 48" fill="none" xmlns="http://www.w3.org/2000/svg">
<path d="M42.7425 12L38.9961 33.1302L21.757 33.13L21.2484 36H0L3.74643 14.8711L20.985 14.871L21.4942 12H42.7425ZM71.2367 28.7334C71.5433 28.7334 71.7891 28.7952 72.0349 28.978C72.2807 29.0991 72.4644 29.3437 72.5873 29.5883L72.8331 28.8557H74L72.8331 32.4581C72.6494 33.0079 72.4644 33.4353 72.4036 33.6799C72.2807 33.9233 72.1578 34.1074 72.0349 34.2902C71.912 34.4125 71.7283 34.5348 71.5434 34.6571C71.3596 34.7782 71.1138 34.84 70.9301 34.84C70.6843 34.9017 70.4385 34.9017 70.1319 34.9017C69.4554 34.9017 69.0271 34.7782 68.7193 34.5954C68.4114 34.4125 68.2897 34.0456 68.3506 33.5576C68.2885 33.3748 68.2885 33.313 68.3506 33.2525L69.6403 33.4353C69.6403 33.5576 69.6403 33.6799 69.7024 33.7405C69.7632 33.8022 69.8241 33.864 69.8861 33.9233C69.9482 33.9851 70.1319 33.9851 70.2536 33.9851C70.4994 33.9851 70.7452 33.9233 70.868 33.8628C70.9922 33.801 71.1138 33.6799 71.1759 33.4959C71.238 33.3748 71.2988 33.1907 71.4217 32.825L71.4825 32.641C70.9909 32.9473 70.5614 33.1302 70.1319 33.1302C69.7012 33.1302 69.3337 33.0079 69.0879 32.7027C68.8421 32.3976 68.7192 31.9701 68.7801 31.4204C68.8421 30.9312 68.965 30.4432 69.2096 30.0158C69.4554 29.5883 69.7632 29.2832 70.1319 29.0386C70.4994 28.7939 70.868 28.7334 71.2367 28.7334ZM14.0026 16.8254L1.72053 33.1302H4.54338L8.22774 28.1837H15.7814L17.7465 33.1302H20.5731L14.0026 16.8254ZM45.5058 27.0236C46.2432 27.0236 46.7956 27.2065 47.2251 27.5116C47.6546 27.8167 47.9004 28.306 47.9625 28.9163L46.7335 29.0386C46.6714 28.7334 46.489 28.427 46.304 28.306C46.0582 28.1219 45.8124 28.0614 45.445 28.0614C45.0142 28.0614 44.6455 28.1837 44.2781 28.3665C43.9094 28.5493 43.6016 28.9162 43.357 29.3425C43.1112 29.7711 42.9883 30.2591 42.9263 30.7483C42.8642 31.2363 42.9883 31.6032 43.172 31.8478C43.4178 32.0912 43.7245 32.2135 44.216 32.2135C44.5226 32.2135 44.7684 32.1517 45.0763 32.0912C45.3829 32.0294 45.6287 31.9084 45.8745 31.8478L46.1811 30.9929H44.5847L44.7684 29.8934H47.5938L46.7335 32.4581C46.3661 32.641 45.9353 32.8238 45.445 32.9461C44.9534 33.0696 44.4618 33.1302 43.9702 33.1302C43.172 33.1302 42.6196 32.9461 42.251 32.641C41.6986 32.2135 41.5136 31.5415 41.5757 30.6866C41.6377 30.1381 41.8214 29.5265 42.1281 29.0386C42.4967 28.427 42.9263 27.8773 43.5407 27.5721C44.0931 27.2065 44.7697 27.0236 45.5058 27.0236ZM50.8486 28.6111C51.4631 28.6111 51.8914 28.7334 52.1384 28.9163C52.3842 29.1609 52.5071 29.4042 52.5071 29.7094C52.5071 29.8329 52.445 29.954 52.445 30.1381C52.3829 30.2591 52.2613 30.6866 52.0763 31.2981C51.8926 31.7861 51.8305 32.153 51.7697 32.3976C51.7697 32.5804 51.7697 32.7633 51.8318 33.0079H50.6028C50.5408 32.8238 50.5408 32.7027 50.5408 32.5187C50.357 32.7027 50.1113 32.8238 49.8655 32.9461C49.6197 33.0696 49.3751 33.0696 49.1293 33.0696C48.7607 33.0696 48.454 32.9461 48.2082 32.7027C47.9625 32.4581 47.9004 32.153 47.9004 31.7861C47.9625 31.3586 48.0854 31.0535 48.392 30.8101C48.6986 30.5655 49.1902 30.4432 49.8655 30.3814C50.4799 30.3197 50.8486 30.2591 51.0944 30.1986C51.1565 30.0158 51.2173 29.8934 51.2173 29.8317C51.2173 29.7094 51.2173 29.5883 51.0932 29.5265C50.9715 29.4648 50.8486 29.4042 50.6028 29.4042C50.357 29.4042 50.1733 29.466 50.0504 29.5278C49.9884 29.7094 49.9263 29.8317 49.8655 29.954L48.6378 29.8317C48.8215 29.466 49.0673 29.1609 49.436 28.9163C49.8046 28.6716 50.2962 28.6111 50.8486 28.6111ZM59.2613 28.6111C59.63 28.6111 59.8758 28.6729 60.0595 28.9163C60.2445 29.0991 60.3053 29.3437 60.3053 29.6488C60.3053 29.7711 60.2432 30.0763 60.1216 30.4432L59.2613 33.0684H58.0324L58.8926 30.4432C59.0168 30.1381 59.0776 29.954 59.0776 29.8934C59.0776 29.7699 59.0776 29.7094 59.0155 29.5883C58.9535 29.5265 58.8318 29.4648 58.7089 29.4648C58.4023 29.4648 58.0944 29.6488 57.8487 29.8934C57.6649 30.1381 57.4812 30.5037 57.2962 31.0535L56.6818 33.0079H55.4541L56.3143 30.3814C56.4372 30.0763 56.4372 29.8934 56.4981 29.7711C56.4981 29.6488 56.4981 29.5883 56.3752 29.466C56.3131 29.4042 56.1914 29.3425 56.0685 29.3425C55.9444 29.3425 55.7607 29.4042 55.6378 29.466C55.5149 29.5278 55.3312 29.6488 55.2083 29.7711C55.0854 29.8934 54.9625 30.0763 54.9017 30.2591C54.8396 30.3827 54.7775 30.5655 54.6559 30.9312L54.0414 32.8856H52.8125L54.0414 28.7334H55.2083L55.0246 29.2819C55.5149 28.8545 56.0065 28.6716 56.4981 28.6716C56.8667 28.6716 57.1125 28.7334 57.2962 28.8545C57.4812 28.978 57.542 29.1609 57.6041 29.4042C57.7878 29.1609 58.0336 29.0386 58.3402 28.8545C58.6468 28.7334 58.9547 28.6111 59.2613 28.6111ZM67.0608 28.6716C67.4295 28.6716 67.7361 28.7939 67.9211 28.9768C68.1048 29.1596 68.2277 29.466 68.1668 29.7711C68.1668 29.8934 68.0427 30.1986 67.9211 30.626L67.1229 33.0684H65.8939L66.6921 30.626C66.8162 30.2591 66.8771 30.0158 66.8771 29.954C66.8771 29.8317 66.8771 29.7094 66.7529 29.5883C66.6921 29.5265 66.5692 29.4648 66.3855 29.4648C66.2018 29.4648 66.0168 29.5265 65.771 29.7094C65.5265 29.8329 65.3415 30.0158 65.2186 30.2591C65.0957 30.4432 64.9728 30.7483 64.7891 31.2969L64.2367 33.0684H63.0078L64.4204 28.7322H65.5873L65.4036 29.2819C65.7102 29.0386 66.0168 28.8545 66.2626 28.7939C66.5084 28.6716 66.815 28.6716 67.0608 28.6716ZM63.1927 28.7309L61.78 33.0054H60.5511L61.9638 28.7309H63.1927ZM50.9094 31.0535C50.8474 31.0535 50.7257 31.1153 50.6028 31.1153C49.9884 31.1758 49.5588 31.2981 49.3739 31.4204C49.2522 31.5415 49.1293 31.6638 49.1293 31.7861C49.1293 31.9084 49.1293 32.0307 49.2522 32.153C49.3751 32.2753 49.498 32.2753 49.6209 32.2753C49.8046 32.2753 49.9884 32.2135 50.1733 32.1517C50.357 32.0912 50.4799 31.9689 50.6028 31.8478C50.7257 31.7243 50.7866 31.4809 50.9094 31.2363V31.0535ZM71.4825 29.4055C71.2367 29.4055 71.053 29.466 70.868 29.6488C70.6843 29.8329 70.4994 30.0763 70.3156 30.3814C70.0699 30.7483 70.009 30.9929 70.009 31.1758V31.177C69.947 31.4809 70.009 31.7255 70.1927 31.9084C70.3156 32.0912 70.4994 32.153 70.7452 32.153C70.9909 32.153 71.1759 32.0912 71.4217 31.9084C71.6662 31.7255 71.7891 31.5427 71.9741 31.2376C72.097 30.9312 72.2199 30.6878 72.2199 30.4432C72.2807 30.1381 72.1578 29.8934 72.0349 29.7106C71.8512 29.5265 71.6662 29.4055 71.4825 29.4055ZM31.6882 14.8711C27.3894 14.8711 23.2755 18.3512 22.5381 22.6256C21.8008 26.9001 24.6261 30.3814 28.9858 30.3814C32.2051 30.3814 35.366 28.4263 37.0088 25.6308L37.1539 25.3744L37.5834 22.932H30.3984L29.9689 25.4349H34.4515L34.2874 25.639C33.0569 27.1119 31.2341 28.0614 29.3545 28.0614C26.4075 28.0614 24.3803 25.6795 24.9327 22.6874C25.4864 19.7558 28.3105 17.3134 31.2587 17.3134C33.1419 17.3134 34.6306 18.2665 35.3458 19.7431L35.4346 19.9386H38.075L38.0212 19.7028C37.3271 16.8943 34.9143 14.8711 31.6882 14.8711ZM63.7451 27.0829L63.3764 28.1207H62.1475L62.5162 27.0829H63.7451ZM13.1423 21.5879L14.8007 25.7413H10.0103L13.1423 21.5879ZM59.6921 21.2222C60.3065 21.2222 60.7348 21.3445 60.9818 21.5274C61.2276 21.772 61.3505 22.0153 61.3505 22.3217C61.3505 22.4428 61.2885 22.5651 61.2885 22.7479C61.2264 22.8715 61.1047 23.2977 60.9198 23.9092C60.7361 24.3972 60.674 24.7641 60.6132 25.0087C60.6132 25.1915 60.6132 25.3744 60.6752 25.619H59.4463C59.3842 25.4349 59.3842 25.3138 59.3842 25.1298C59.2005 25.3138 58.9547 25.4361 58.7089 25.5572C58.4644 25.6808 58.2186 25.6808 57.9728 25.6808C57.6041 25.6808 57.2975 25.5572 57.0517 25.3138C56.8059 25.0692 56.7438 24.7641 56.7438 24.3972C56.8059 23.9697 56.9288 23.6646 57.2354 23.4212C57.5433 23.1754 58.0336 23.0543 58.7089 22.9925C59.3234 22.9308 59.6921 22.8702 59.9379 22.8097C59.9999 22.6269 60.0608 22.5046 60.0608 22.4428C60.0608 22.3205 60.0608 22.1994 59.9366 22.1376C59.815 22.0759 59.6921 22.0153 59.4463 22.0153C59.2005 22.0153 59.0168 22.0771 58.8939 22.1389C58.8318 22.3205 58.7697 22.4428 58.7089 22.5651L57.4812 22.4428C57.6649 22.0771 57.9107 21.772 58.2794 21.5274C58.6481 21.2828 59.1397 21.2222 59.6921 21.2222ZM56.8059 21.3445L55.3932 25.619H54.1643L55.577 21.3445H56.8059ZM52.3221 21.2222C52.9366 21.2222 53.3661 21.3445 53.6131 21.5274C53.9185 21.7102 54.0414 22.0153 54.1035 22.3217L52.9366 22.5046C52.8745 22.3205 52.8137 22.2599 52.6908 22.1376C52.5071 22.0153 52.3221 21.9548 52.0155 21.9548C51.7076 21.9548 51.586 22.0166 51.4631 22.0771C51.339 22.1389 51.2781 22.2599 51.2781 22.3823C51.2781 22.5046 51.3402 22.5651 51.4023 22.6269C51.4631 22.6886 51.7076 22.7479 52.0763 22.8702C52.6908 23.0543 53.0595 23.1754 53.2432 23.3594C53.489 23.6041 53.6119 23.8474 53.6119 24.1526C53.5498 24.5813 53.3661 24.8864 52.9366 25.1903C52.5679 25.4967 52.0155 25.619 51.3402 25.619C50.6649 25.619 50.1733 25.4954 49.8655 25.2521C49.5588 25.0087 49.3131 24.8864 49.2522 24.4589L50.4812 24.2749C50.542 24.5195 50.6649 24.7023 50.8486 24.7641C50.9715 24.8864 51.2173 24.8864 51.4631 24.8864C51.7697 24.8864 51.9534 24.8246 52.1384 24.7023C52.2613 24.6406 52.3221 24.5195 52.3221 24.3972C52.3221 24.3354 52.3221 24.2749 52.26 24.2143C52.1992 24.1526 52.0155 24.092 51.7697 23.9697C51.0323 23.7251 50.6028 23.5423 50.4191 23.42C50.1733 23.2371 50.0504 22.932 50.1113 22.5651C50.1733 22.1994 50.2962 21.9548 50.6028 21.7102C51.0323 21.3445 51.586 21.2222 52.3221 21.2222ZM48.0233 19.6953L48.454 25.619H47.2251L47.163 24.3366H44.6468L43.7257 25.619H42.3739L46.5498 19.6953H48.0233ZM59.7529 23.6646C59.6908 23.6646 59.5692 23.7264 59.4463 23.7264C58.8318 23.7869 58.4023 23.9092 58.2173 24.0315C58.0957 24.1526 57.9728 24.2749 57.9728 24.3972C57.9728 24.5195 57.9728 24.6418 58.0957 24.7641C58.2186 24.8864 58.3415 24.8864 58.4644 24.8864C58.6481 24.8864 58.8318 24.8246 59.0168 24.7629C59.2005 24.7023 59.3234 24.5813 59.4463 24.4589C59.5692 24.3354 59.63 24.092 59.7529 23.8474V23.6646ZM46.9793 20.9776L45.1992 23.3594H47.1022L46.9793 20.9776ZM57.3583 19.6953L56.9896 20.733H55.7607L56.1294 19.6953H57.3583Z" fill="#888888"/>
</svg>
