<svg width="114" height="48" viewBox="0 0 114 48" fill="none" xmlns="http://www.w3.org/2000/svg">
<path fill-rule="evenodd" clip-rule="evenodd" d="M0 15H16.7016V33H0V15ZM4.04516 30.2672V18.2584H8.15161C9.59194 18.2584 10.7258 18.5212 11.5226 19.073C12.3194 19.6248 12.7484 20.4394 12.7484 21.5168C12.7484 22.0423 12.5952 22.5679 12.3194 23.0409C12.0129 23.4876 11.5532 23.8292 11.0016 24.0394C11.6758 24.1445 12.2887 24.5124 12.6258 25.0117C12.9935 25.5372 13.1774 26.1416 13.1468 26.746C13.1468 27.9022 12.779 28.7693 12.0129 29.3474C11.2468 29.9255 10.1435 30.2409 8.73387 30.2409L4.04516 30.2672ZM6.58871 24.9591V28.4015H8.51935C9.00968 28.4277 9.46936 28.2701 9.80645 27.981C10.1129 27.6394 10.2661 27.1927 10.2355 26.746C10.2661 26.2993 10.1435 25.8263 9.86774 25.4321C9.59194 25.1168 9.1629 24.9328 8.70323 24.9591H6.58871ZM6.58871 23.3299H8.09032C8.58065 23.3562 9.04032 23.1985 9.37742 22.9095C9.68387 22.5942 9.86774 22.1737 9.80645 21.7533C9.8371 21.3066 9.68387 20.8599 9.34677 20.5182C8.97903 20.2292 8.45806 20.0978 7.96774 20.1241H6.58871C6.58871 20.1504 6.58871 23.3299 6.58871 23.3299Z" fill="#888888"/>
<path d="M33.7101 32.9737H32.7295V15H33.7101V32.9737Z" fill="#888888"/>
<path d="M50.7482 32.9737H49.7676V15H50.7482V32.9737Z" fill="#888888"/>
<path d="M67.756 32.9737H66.7754V15H67.756V32.9737Z" fill="#888888"/>
<path d="M84.7947 32.9737H83.8447V15H84.7947V32.9737Z" fill="#888888"/>
<path d="M101.864 32.9737H100.884V15H101.864V32.9737Z" fill="#888888"/>
<path d="M28.9908 28.2693C28.6231 28.8211 28.0714 29.2678 27.4279 29.5832C26.6005 30.0036 25.6198 30.1875 24.6698 30.1613C23.1989 30.1613 22.0037 29.7671 21.115 29.0051C20.2263 28.243 19.7666 27.1656 19.7666 25.7467V22.1992C19.7666 20.8065 20.1956 19.7291 21.0537 18.9671C21.9118 18.2051 23.0456 17.8109 24.4553 17.8372C25.8956 17.8372 26.9682 18.1525 27.7343 18.7569C28.5005 19.3613 28.8989 20.2284 28.9602 21.3583L28.9295 21.4109H27.0908C27.0602 20.6488 26.8456 20.0707 26.4166 19.7029C25.9876 19.335 25.344 19.1248 24.5166 19.1248C23.7505 19.0985 22.9843 19.3875 22.494 19.9131C22.0037 20.4386 21.7585 21.2007 21.7585 22.1992V25.7729C21.7585 26.7978 22.0343 27.5861 22.5553 28.1116C23.0763 28.6372 23.8731 28.9525 24.7005 28.9262C25.2521 28.9525 25.7731 28.8474 26.2634 28.6372C26.6005 28.4532 26.9069 28.1905 27.0908 27.9014V25.1423H24.7005V23.9335H29.0521V28.2693H28.9908Z" fill="#888888"/>
<path d="M39.8385 25.8791H43.3933L41.6772 20.6237H41.6159L39.8385 25.8791ZM43.853 27.193H39.4095L38.3982 30.2149H36.4062L40.6966 18.2324H42.5966L46.8562 30.2149H44.8643L43.853 27.193Z" fill="#888888"/>
<path d="M55.468 18.2324L58.747 28.0076H58.8083L62.0873 18.2324H64.6002V30.2149H62.6696V25.6164L62.8228 21.0178L62.7615 20.9915L59.4212 30.2149H58.1341L54.7631 21.0178H54.7325L54.8857 25.6164V30.2149H52.9551V18.2324H55.468Z" fill="#888888"/>
<path d="M76.7051 30.2149H74.7744V18.2324H76.7051V30.2149Z" fill="#888888"/>
<path d="M97.6972 30.2149H95.7359L90.4343 21.3069H90.373V30.2149H88.4424V18.2324H90.373L95.6746 27.1142H95.7359V18.2324H97.6972V30.2149Z" fill="#888888"/>
<path d="M114 28.348C113.601 28.8998 113.08 29.3465 112.437 29.6618C111.609 30.0823 110.629 30.2662 109.679 30.2399C108.208 30.2399 107.043 29.872 106.124 29.11C105.235 28.348 104.775 27.2706 104.775 25.8516V22.2516C104.775 20.8589 105.204 19.7815 106.062 19.0195C106.921 18.2574 108.054 17.8633 109.433 17.8633C110.874 17.8633 111.946 18.1786 112.712 18.783C113.479 19.3874 113.877 20.2545 113.938 21.3844L113.908 21.437H112.069C112.038 20.675 111.824 20.1231 111.395 19.729C110.966 19.3348 110.322 19.1509 109.495 19.1509C108.729 19.1246 107.962 19.4136 107.472 19.9392C106.982 20.4647 106.737 21.2268 106.737 22.2253V25.799C106.737 26.8239 107.012 27.6122 107.533 28.1377C108.054 28.6633 108.851 28.9786 109.679 28.9523C110.23 28.9786 110.751 28.8735 111.242 28.6633C111.579 28.4793 111.885 28.2166 112.069 27.9275V25.1947H109.679V23.9859H114V28.348Z" fill="#888888"/>
</svg>
