<svg width="73" height="48" viewBox="0 0 73 48" fill="none" xmlns="http://www.w3.org/2000/svg">
<path d="M69.4942 25.9638L69.5428 25.9977C69.6015 26.0327 69.656 26.0757 69.7045 26.1264C69.8576 26.272 69.9451 26.4758 69.9451 26.6869C69.9451 26.8944 69.8649 27.091 69.7152 27.233C69.405 27.5351 68.9084 27.5314 68.6022 27.222L68.5577 27.1722C68.4864 27.0926 68.4308 26.9836 68.3903 26.8454C68.3535 26.7071 68.2914 26.6343 68.2004 26.6343C68.04 26.6343 67.2332 27.093 67.0473 27.3077C67.2185 27.5261 67.3575 27.77 67.4631 28.0248C67.54 28.2359 67.5761 28.4543 67.5761 28.68C67.5835 29.0585 67.4812 29.4298 67.2806 29.7538C67.0835 30.0632 66.7587 30.3362 66.3024 30.5764C65.9009 30.7985 65.452 30.9222 64.9957 30.9331H64.2292C63.6854 30.9331 63.3277 30.9877 63.1488 31.1006C62.9736 31.2098 62.8714 31.4063 62.8824 31.6101C62.8751 31.7776 62.959 31.9377 63.1014 32.0288C63.2473 32.127 63.5211 32.1744 63.9226 32.1744L65.6563 32.138C66.5324 32.138 67.1637 32.2836 67.5474 32.5747C67.9264 32.855 68.1423 33.3028 68.1236 33.7759C68.1309 34.322 67.8863 34.8425 67.4631 35.1882C66.8502 35.7306 65.9374 36 64.7183 36C63.7145 36 62.9663 35.8143 62.4809 35.4467C62.0976 35.1591 61.9041 34.8352 61.9041 34.4748C61.9115 34.18 62.0465 33.907 62.2728 33.7177C62.5174 33.4883 62.9298 33.3173 63.5065 33.2081C63.043 33.0952 62.6962 32.9314 62.4626 32.7131C62.2327 32.5056 62.1049 32.2144 62.1122 31.905C62.1049 31.6174 62.2071 31.3372 62.3969 31.1224C62.5867 30.8967 62.9152 30.7075 63.3824 30.5509C63.0211 30.3653 62.7108 30.0923 62.4845 29.7574C62.2801 29.4371 62.1779 29.0658 62.1852 28.6909C62.1779 28.0721 62.4553 27.4861 62.9371 27.0966C63.4372 26.6671 64.0869 26.4523 64.8862 26.4523C65.2074 26.4523 65.525 26.4996 65.8316 26.5906C66.1419 26.6925 66.4411 26.8381 66.7113 27.0238C67.1784 26.5506 68.4852 25.8626 68.905 25.8444C69.1423 25.8353 69.3415 25.8667 69.4942 25.9638ZM65.2804 33.2154C64.419 33.2154 63.8058 33.3355 63.4372 33.5721C63.0685 33.8087 62.886 34.0962 62.886 34.4347C62.8787 34.7405 63.0393 35.0244 63.3021 35.1846C63.6671 35.4285 64.1854 35.5486 64.8607 35.5486C65.6673 35.5486 66.2696 35.4139 66.6784 35.1482C67.0834 34.8824 67.288 34.5877 67.288 34.26C67.288 34.0671 67.2185 33.8778 67.0982 33.725C66.9411 33.5393 66.7295 33.4083 66.4959 33.3464C66.098 33.2445 65.6892 33.2008 65.2804 33.2154ZM14.286 30.879C15.0306 30.879 15.6329 31.4797 15.6329 32.2222C15.6329 32.9648 15.0306 33.5653 14.286 33.5653C13.5414 33.5653 12.9392 32.9648 12.9392 32.2222C12.9392 31.4797 13.5414 30.879 14.286 30.879ZM30.8774 23.1895L31.1365 27.3172H30.6803C30.3299 26.1306 29.9175 25.2716 29.4393 24.7401C28.8334 24.0667 28.1363 23.7318 27.3515 23.7318C26.7711 23.7245 26.2054 23.9029 25.7346 24.2414C25.2564 24.5836 24.8914 25.0932 24.6359 25.7739C24.3804 26.4545 24.2526 27.1425 24.2526 28.3764C24.2526 29.5739 24.3804 30.2401 24.6359 30.9171C24.8914 31.5941 25.2418 32.0892 25.6908 32.4095C26.1507 32.7298 26.7018 32.8972 27.2639 32.8863C28.0815 32.8863 28.713 32.657 29.1583 32.1984C29.6035 31.7397 29.8299 31.1501 29.8335 30.4293V29.4575C29.8408 29.3156 29.7715 29.1808 29.6547 29.1008C29.5342 29.017 29.3408 28.9734 29.067 28.977H28.191V28.4856H32.2717V28.977H31.9542C31.6914 28.977 31.5052 29.0243 31.3921 29.1154C31.2752 29.2136 31.2132 29.3592 31.2242 29.5121V33.4651H30.7606C30.5927 32.8499 30.4175 32.2603 30.235 31.6961C29.932 32.2239 29.5013 32.6679 28.9831 32.9882C28.483 33.2795 27.9172 33.4251 27.3405 33.4177C26.4828 33.4214 25.6433 33.1884 24.9096 32.7444C24.1577 32.2894 23.5445 31.6342 23.143 30.8516C22.7087 30.0362 22.4933 29.3883 22.4933 28.3619C22.4933 27.3354 22.7087 26.6802 23.1467 25.8612C23.5591 25.0677 24.176 24.3979 24.9315 23.9174C25.6871 23.437 26.4499 23.1968 27.2238 23.1968C27.6545 23.1968 28.0815 23.2732 28.483 23.4224C28.9684 23.6153 29.4247 23.8883 29.8335 24.2232L30.4066 23.1895H30.8774ZM35.5779 26.4601C36.359 26.4601 36.954 26.6275 37.3665 26.9624C37.757 27.2572 37.9833 27.7159 37.9833 28.2V31.7853C37.9724 32.0038 38.0271 32.2185 38.1403 32.4041C38.2242 32.5352 38.3556 32.6298 38.5089 32.6589C38.7498 32.6844 38.998 32.6953 39.2462 32.6881L39.25 32.695L39.3474 32.6956C39.5044 32.7065 39.6577 32.6555 39.7781 32.5573C39.8767 32.4663 39.9315 32.3352 39.9278 32.2006V27.9054C39.9424 27.7088 39.8767 27.5195 39.7453 27.3739C39.6249 27.2575 39.3803 27.181 39.0153 27.1483L39.019 26.6569L40.8987 26.5367C40.9973 26.9954 41.0666 27.4613 41.1031 27.9308C41.4608 27.4213 41.8149 27.0609 42.1726 26.8498C42.5266 26.6423 42.9354 26.5331 43.3479 26.5367C43.753 26.5222 44.1509 26.6459 44.4721 26.8934C44.7677 27.13 44.994 27.5159 45.1546 28.051C45.4138 27.5996 45.7715 27.2138 46.1985 26.9153C46.5708 26.6678 47.0052 26.5367 47.4541 26.5404C48.0528 26.5404 48.5017 26.7187 48.801 27.0718C49.1843 27.5377 49.3777 28.142 49.3777 28.8772V32.1241C49.3777 32.3207 49.4251 32.4517 49.5237 32.5245C49.6952 32.6446 49.8996 32.6992 50.1077 32.6847H50.4362L50.436 32.688L51.2382 32.6888C51.3674 32.6788 51.4901 32.6264 51.5893 32.539C51.6915 32.4189 51.7427 32.2624 51.7317 32.1022V27.9708C51.7463 27.7489 51.666 27.5341 51.5054 27.3812C51.3558 27.2465 51.1331 27.181 50.8374 27.181H50.5673L50.571 26.6569L52.9179 26.5804V32.2224C52.907 32.3425 52.9472 32.4626 53.0311 32.5499C53.1442 32.6446 53.2902 32.6955 53.4399 32.6883L54.051 32.688L54.0515 32.6851H54.5078C54.6939 32.696 54.8763 32.6487 55.0297 32.5467C55.1428 32.4667 55.2085 32.3356 55.2085 32.1973V27.964C55.2267 27.7311 55.1465 27.4981 54.9822 27.327C54.8301 27.1966 54.6426 27.1217 54.4448 27.1089L53.9894 27.1086L53.9857 26.6573L56.1685 26.5226C56.267 26.9994 56.3327 27.4799 56.3656 27.964C56.6211 27.5272 56.9788 27.1596 57.4095 26.8938C57.8219 26.6536 58.2891 26.5299 58.7673 26.5371C59.1469 26.5226 59.5265 26.6136 59.8623 26.7919C60.1762 26.9812 60.4244 27.2652 60.5704 27.6C60.7529 27.9858 60.8442 28.4117 60.8368 28.8376V32.0298C60.8368 32.2664 60.8916 32.4375 60.9974 32.5358C61.1106 32.6377 61.2858 32.6851 61.5376 32.6851H61.7275V33.2092H58.8074V32.6851H58.8659C59.1761 32.6851 59.3878 32.6341 59.5119 32.5395C59.6397 32.4303 59.7053 32.2664 59.6944 32.099V29.2926C59.6944 28.6811 59.5995 28.2297 59.4133 27.9349C59.1506 27.5163 58.7527 27.3052 58.2198 27.3052C57.7015 27.2979 57.2124 27.5345 56.8985 27.9422C56.5444 28.368 56.3692 28.9176 56.3692 29.602V32.0298C56.3692 32.2701 56.424 32.4375 56.5335 32.5358C56.6429 32.6341 56.8255 32.6851 57.0773 32.6851H57.2598V33.2092L54.184 33.209L54.1845 33.2124H50.1731L50.173 33.208L47.122 33.2088V32.6847H47.4505C47.7316 32.6847 47.925 32.6373 48.0418 32.5463C48.1586 32.4407 48.2206 32.2843 48.2097 32.1241V28.87C48.2097 28.3859 48.0892 28.0073 47.852 27.7416C47.6147 27.4759 47.2717 27.3266 46.914 27.3411C46.6292 27.3375 46.3519 27.4213 46.1182 27.5778C45.87 27.7452 45.6766 27.9782 45.5561 28.2512C45.3554 28.6661 45.2568 29.0192 45.2568 29.3104V32.1314C45.2422 32.2879 45.3006 32.4444 45.4101 32.5573C45.5211 32.6388 45.6507 32.6854 45.786 32.6952L46.3372 32.6956V33.2197H42.9829V32.6956H43.3625C43.5523 32.7101 43.7384 32.6592 43.8954 32.5573C44.0085 32.4735 44.0742 32.3389 44.0706 32.2006V29.1757C44.0706 28.5351 43.9574 28.0728 43.7348 27.7816C43.5194 27.4977 43.1763 27.3375 42.8186 27.3485C42.3222 27.3485 41.9426 27.5159 41.6725 27.8508C41.2965 28.324 41.0958 28.9136 41.1031 29.5179V32.135C41.1031 32.3352 41.1469 32.4735 41.2382 32.55C41.4134 32.6628 41.6214 32.7138 41.8294 32.6956H42.1653V33.2197H38.851L38.852 33.2084C38.7985 33.2102 38.7431 33.2103 38.6869 33.21L38.4943 33.2086C38.1768 33.2086 37.538 33.1904 37.319 33.0266C37.0781 32.8483 37.0088 32.6699 36.8445 32.2367C36.3992 32.7027 36.0086 33.0156 35.6728 33.1722C35.2896 33.336 34.8771 33.4161 34.4611 33.4051C33.7858 33.4051 33.2748 33.2596 32.9244 32.972C32.585 32.7026 32.3878 32.2913 32.3988 31.8582C32.3988 31.1775 32.8003 30.6133 33.6033 30.162C34.4063 29.7106 35.4721 29.4121 36.808 29.2665V28.2728C36.808 27.9197 36.6511 27.5885 36.3809 27.3628C36.078 27.1044 35.6911 26.9697 35.2932 26.9842C34.9246 26.9733 34.5633 27.0607 34.242 27.2354C34.0304 27.3628 33.9282 27.4865 33.9282 27.6067C33.9537 27.7305 34.0121 27.8432 34.096 27.9342C34.2129 28.0762 34.2859 28.2473 34.3004 28.4329C34.3077 28.6259 34.2347 28.8115 34.096 28.9462C33.9537 29.0808 33.7602 29.1536 33.5631 29.1464C33.3441 29.1536 33.1288 29.0663 32.9755 28.9098C32.8185 28.746 32.7309 28.5276 32.7419 28.3019C32.7419 27.8396 33.0047 27.4174 33.5266 27.0352C34.0522 26.653 34.7348 26.4601 35.5779 26.4601ZM8.51869 23.4422C10.3319 23.0412 12.5966 22.9034 15.4651 23.1272C14.8372 31.8922 6.48603 35.5249 0.0218686 32.0815L0.161398 31.7658C0.764468 30.3894 1.33901 28.9479 2.19414 27.6414L2.17541 27.6404C3.3769 25.8039 5.13758 24.2344 8.3176 23.4883C8.35629 23.479 8.39514 23.47 8.43421 23.4611C8.44288 23.4595 8.45133 23.4576 8.45979 23.4557L8.51869 23.4422ZM14.286 31.152C13.6948 31.152 13.2129 31.6325 13.2129 32.2222C13.2129 32.8119 13.6948 33.2924 14.286 33.2924C14.881 33.2924 15.3628 32.8155 15.3592 32.2222C15.3592 31.6325 14.8773 31.152 14.286 31.152ZM14.3616 31.5059C14.4925 31.5091 14.5912 31.5248 14.6876 31.6034C14.7898 31.6871 14.8445 31.8145 14.8408 31.9456C14.8408 32.1239 14.7277 32.2841 14.5598 32.3314L14.8701 32.892H14.5781L14.3007 32.3751H14.0707V32.892H13.8116V31.5051L14.3616 31.5059ZM36.8007 29.7251C35.6108 29.8889 34.7713 30.1546 34.2749 30.5223C33.9062 30.8026 33.7201 31.1993 33.7201 31.7125C33.7201 32.0729 33.815 32.3532 34.0084 32.557C34.2019 32.7609 34.4756 32.8737 34.7603 32.8628C35.3042 32.8664 35.8261 32.6371 36.1948 32.2367C36.5999 31.8181 36.8189 31.2503 36.8007 30.6679V29.7251ZM14.2832 31.7234L14.1912 31.7272H14.0707V32.1603H14.3335C14.3444 32.1567 14.3517 32.1567 14.3627 32.1567C14.4832 32.1567 14.5781 32.062 14.5781 31.9419C14.5817 31.8619 14.5379 31.7891 14.4649 31.7563C14.3773 31.7272 14.2824 31.7163 14.1912 31.7272L14.2832 31.7234ZM64.8643 26.9036C64.4701 26.8964 64.0905 27.0638 63.835 27.3623C63.5649 27.6681 63.4298 28.094 63.4262 28.6472C63.4262 29.2332 63.5613 29.6919 63.835 30.0158C64.3168 30.5909 65.1746 30.6674 65.7476 30.1869C65.806 30.1396 65.8572 30.0886 65.9082 30.0304C66.1784 29.7137 66.3097 29.2624 66.3097 28.6763C66.3097 28.1304 66.1747 27.6972 65.9009 27.3805C65.6455 27.0711 65.2658 26.8964 64.8643 26.9036ZM52.1222 23.5592C52.3303 23.5592 52.531 23.6429 52.677 23.7958C52.8303 23.9414 52.9179 24.1453 52.9179 24.3564C52.9179 24.5639 52.834 24.7604 52.688 24.9024C52.3777 25.2045 51.8813 25.2008 51.5747 24.8914C51.2718 24.5821 51.2754 24.087 51.5857 23.7813C51.728 23.6393 51.9215 23.5592 52.1222 23.5592ZM15.4651 22.2407C14.2046 22.3394 13.0606 22.3683 12.0204 22.3356L12.0159 22.3442C3.82858 22.0922 2.04806 18.0347 0.410136 14.2369L0.164734 13.6697L0 13.2953C0.21774 13.1792 0.437607 13.0712 0.659234 12.9712C0.68998 12.9584 0.720271 12.9448 0.750594 12.9313C0.792998 12.9117 0.836017 12.8931 0.879097 12.8747C0.923111 12.8566 0.967101 12.8381 1.01115 12.8199C1.04988 12.8037 1.08827 12.7881 1.12671 12.7729C7.39914 10.2669 14.8725 13.9676 15.4651 22.2407ZM36.6405 15.3157C37.4873 15.2975 38.2976 15.6469 38.867 16.2693C39.4656 16.9063 39.7649 17.7435 39.7649 18.7846C39.7649 19.5016 39.6299 20.1168 39.3634 20.6227C39.1006 21.1214 38.7028 21.54 38.2137 21.8239C37.7282 22.1115 37.1734 22.2644 36.6076 22.2608C35.7791 22.2716 34.9871 21.9186 34.4432 21.2961C33.8519 20.6519 33.5562 19.8183 33.5562 18.7918C33.5562 17.7654 33.8519 16.9282 34.4468 16.2803C34.998 15.6542 35.801 15.3011 36.6405 15.3157ZM62.2655 15.3157C63.1123 15.2975 63.9226 15.6469 64.492 16.2693C65.0906 16.9063 65.3899 17.7435 65.3899 18.7846C65.3899 19.5016 65.2549 20.1168 64.9884 20.6227C64.7257 21.1214 64.3278 21.5364 63.8387 21.8203C63.3532 22.1115 62.7984 22.2608 62.229 22.2608C61.4005 22.2716 60.6084 21.9186 60.0645 21.2961C59.4733 20.6519 59.1776 19.8183 59.1776 18.7918C59.1776 17.7654 59.4733 16.9282 60.0682 16.2803C60.6266 15.6542 61.4297 15.3011 62.2655 15.3157ZM34.1107 15.5077V15.9882C33.8734 16.0027 33.6471 16.0792 33.45 16.2138C33.2821 16.3412 33.1507 16.5087 33.0704 16.7016L30.6614 22.2598H30.2818L27.6976 16.5487C27.6319 16.374 27.5114 16.2248 27.3618 16.1192C27.2267 16.0391 26.6647 15.9954 26.3799 15.9882L26.369 15.5113H29.9643V15.9882C29.5336 15.9954 29.2598 16.0355 29.1393 16.101C29.0298 16.1556 28.9568 16.2684 28.9605 16.3922C28.9605 16.4978 28.986 16.6033 29.0298 16.7016L30.7746 20.5709L32.3623 16.8181C32.3842 16.7562 32.3951 16.6907 32.3988 16.6215C32.3988 16.283 32.063 16.0682 31.3877 15.9845V15.5077H34.1107ZM52.7625 12.836V15.5077L55.454 15.507L57.9696 15.4337V21.0757C57.9587 21.1958 57.9989 21.3159 58.0828 21.4033C58.196 21.4979 58.342 21.5489 58.4916 21.5416H58.9661V22.0658H55.7687V21.5416H56.1921C56.3564 21.5562 56.5169 21.5015 56.6411 21.3923C56.7433 21.2722 56.798 21.1121 56.7834 20.9556V16.9516C56.798 16.7296 56.7177 16.5148 56.5571 16.3619C56.4074 16.2273 56.1848 16.1617 55.8892 16.1617H55.3489L55.348 16.152L52.7625 16.152V20.3525C52.7625 20.7165 52.8501 20.9968 53.0216 21.1897C53.1859 21.379 53.4305 21.4845 53.6823 21.4809C54.0108 21.4773 54.3138 21.3098 54.4963 21.0405C54.7225 20.7457 54.8503 20.2615 54.8904 19.5845H55.3613C55.3321 20.4581 55.135 21.1024 54.7663 21.5282C54.4086 21.9468 53.8794 22.1798 53.3283 22.1616C52.7844 22.1616 52.361 22.0124 52.0544 21.7139C51.7478 21.4081 51.5799 20.9895 51.5981 20.5563V16.152H50.4521V15.6606C50.9776 15.5732 51.3719 15.3548 51.6419 15.009C52.0434 14.4958 52.2588 13.7678 52.2916 12.836H52.7625ZM49.7533 15.3853V20.7615C49.7387 20.9726 49.8154 21.1801 49.965 21.333C50.1256 21.4749 50.3373 21.5441 50.5527 21.5332H50.9687V22.0028L48.7568 22.0537L48.6181 20.7652C48.286 21.1765 47.8845 21.5295 47.4319 21.8098C47.0705 22.0319 46.6544 22.1556 46.2274 22.1593C45.6689 22.1738 45.1287 21.9591 44.7345 21.5659C44.3294 21.1728 44.125 20.5103 44.125 19.5713V16.7248C44.1359 16.4918 44.0191 16.2734 43.822 16.1497C43.6834 16.055 43.395 16.0041 42.957 15.9968V15.5054L45.2857 15.3889V19.7351C45.2857 20.2665 45.4207 20.6778 45.6872 20.9654C45.9536 21.253 46.3332 21.4131 46.7275 21.3985C47.2457 21.4021 47.7385 21.1692 48.0633 20.7652C48.4356 20.3247 48.6327 19.7569 48.6145 19.1818V16.7248C48.6254 16.521 48.5342 16.328 48.3736 16.2043C48.213 16.0805 47.9027 16.0114 47.4428 15.9968V15.5054L49.7533 15.3853ZM26.5319 12.2579L26.729 14.9369H26.2582C26.072 13.8376 26.0465 13.6083 25.6449 13.1679C25.2398 12.7275 24.4404 12.7821 23.7944 12.7821H21.7614C21.6227 12.7711 21.4876 12.8221 21.389 12.9167C21.2978 13.0296 21.2503 13.1752 21.265 13.3208V16.7387H22.1519C22.5972 16.7533 23.0206 16.564 23.3089 16.2291C23.6083 15.8869 23.7688 15.3664 23.7871 14.6603H24.2726V19.4541H23.7907C23.7688 18.6606 23.6046 18.0928 23.3053 17.7506C23.006 17.4085 22.5935 17.2374 22.0752 17.2374H21.265V21.0812C21.2576 21.2122 21.3124 21.3396 21.4146 21.4233C21.5132 21.5034 21.681 21.5435 21.9146 21.5435H23.5206C25.2617 21.5435 26.2691 20.9756 26.5356 18.7553H27.0393L26.8641 22.0676H18.5785V21.5435H19.0165C19.2939 21.5435 19.4874 21.4961 19.6006 21.4015C19.7173 21.2959 19.7794 21.143 19.7684 20.9866V13.3244C19.7794 13.1752 19.7283 13.0259 19.6224 12.9204C19.491 12.8221 19.3268 12.7748 19.1589 12.7857H18.5785V12.2579H26.5319ZM41.9532 12.1407V21.1023C41.946 21.2152 41.9897 21.3243 42.0737 21.4044C42.1942 21.4991 42.3474 21.5501 42.5007 21.5427H42.9241V22.0669H39.745V21.5427H40.1319C40.3071 21.5573 40.4786 21.4991 40.61 21.3899C40.7195 21.2734 40.778 21.1169 40.767 20.9567V13.5239C40.7852 13.3346 40.7159 13.1453 40.5771 13.0143C40.3983 12.8614 40.172 12.785 39.9384 12.7886H39.3508V12.2572L41.9532 12.1407ZM67.4411 15.3749C67.54 15.8517 67.6055 16.3322 67.6383 16.8163C67.8936 16.3795 68.2513 16.0119 68.6824 15.7462C69.0949 15.5059 69.5621 15.3822 70.0401 15.3894C70.4197 15.3749 70.7994 15.4659 71.135 15.6442C71.4492 15.8335 71.6972 16.1174 71.8429 16.4523C72.0254 16.8381 72.117 17.264 72.1096 17.6899V20.8822C72.1096 21.1188 72.1644 21.2898 72.27 21.3881C72.3797 21.4864 72.5588 21.5373 72.8102 21.5373H73V22.0615H70.0802V21.5373H70.1383C70.4491 21.5373 70.6644 21.49 70.7847 21.3917C70.9124 21.2825 70.9779 21.1188 70.9672 20.9513V18.1449C70.9672 17.5334 70.8723 17.082 70.6858 16.7872C70.4231 16.3686 70.0253 16.1575 69.4926 16.1575C68.9745 16.1502 68.4852 16.3868 68.171 16.7945C67.8174 17.2203 67.6423 17.77 67.6423 18.4543V20.8822C67.6423 21.1188 67.6964 21.2898 67.8061 21.3881C67.9157 21.4864 68.0982 21.5373 68.3502 21.5373H68.536V22.0615H65.5943V21.5373H65.7769C65.963 21.5483 66.1455 21.5009 66.2988 21.399C66.412 21.3189 66.4776 21.1879 66.4776 21.0496V16.8163C66.4959 16.5833 66.4156 16.3504 66.2514 16.1793C66.0689 16.0228 65.8352 15.9464 65.5943 15.9609H65.2585V15.5096L67.4411 15.3749ZM36.6405 15.8143C36.1149 15.8143 35.6842 16.0509 35.3484 16.5241C35.0126 16.9973 34.8447 17.7435 34.8447 18.7627C34.8447 19.8037 35.0126 20.5645 35.3484 21.045C35.6842 21.5255 36.1149 21.7657 36.6441 21.7657C37.1917 21.7657 37.6333 21.5255 37.9728 21.045C38.3122 20.5645 38.4801 19.7782 38.4801 18.6863C38.4801 17.6744 38.3122 16.9427 37.98 16.4877C37.6735 16.0546 37.1734 15.7998 36.6405 15.8143ZM62.2655 15.8143C61.7399 15.8143 61.3129 16.0509 60.9734 16.5241C60.6376 16.9973 60.4697 17.7435 60.4697 18.7627C60.4697 19.8037 60.6376 20.5645 60.9734 21.045C61.3092 21.5255 61.7399 21.7657 62.2655 21.7657C62.813 21.7657 63.2546 21.5255 63.5941 21.045C63.9336 20.5645 64.1014 19.7782 64.1014 18.6863C64.1014 17.6744 63.9336 16.9427 63.6014 16.4877C63.3021 16.0546 62.7984 15.7998 62.2655 15.8143ZM57.1777 12.4089C57.3857 12.4089 57.5864 12.4963 57.7324 12.6455C57.8858 12.7911 57.9733 12.995 57.9696 13.2061C57.9733 13.4136 57.8894 13.6101 57.7397 13.7521C57.4295 14.0542 56.9331 14.0505 56.6264 13.7412C56.3235 13.4318 56.3272 12.9367 56.6374 12.631C56.7834 12.4926 56.9768 12.4126 57.1777 12.4089Z" fill="#888888"/>
</svg>
