<svg width="98" height="48" viewBox="0 0 98 48" fill="none" xmlns="http://www.w3.org/2000/svg">
<path d="M12.1111 12C16.2 12 20 14.0508 22.2444 17.3807C25.9111 22.9379 24.3556 30.3915 18.7556 34.0301C13.1556 37.6687 5.64444 36.125 1.97778 30.5679C2.51111 29.752 3.04444 28.914 3.55556 28.076C4.37778 26.7749 5.15556 25.4739 5.91111 24.1507L6.46667 23.1584C6.66667 22.8276 6.84444 22.4968 7.02222 22.166C7.24444 21.7691 7.46667 21.3501 7.68889 20.9311V22.6732C7.71111 23.9082 7.75556 25.121 7.88889 26.3559C7.95556 26.9734 8.04444 27.6129 8.17778 28.2304C8.31111 28.914 8.53333 29.5756 8.84444 30.193C9.04444 30.59 9.33333 30.9428 9.66667 31.2295C9.88889 31.4059 10.1333 31.5603 10.4 31.6485C10.6667 31.7367 10.9778 31.7808 11.2667 31.7587L11.6667 31.6926C11.7333 31.6926 11.7778 31.6705 11.8444 31.6485L11.9333 31.6264H11.9778L12.0444 31.6044H12.0667L12.1778 31.5603L12.3778 31.45C12.4889 31.4059 12.5778 31.3397 12.6667 31.2736C12.9556 31.031 13.2444 30.7884 13.4889 30.5017C13.9111 30.0166 14.3111 29.4874 14.6667 28.936C15.0222 28.4068 15.3333 27.8775 15.6444 27.3042C16.2667 26.2236 16.8 25.1431 17.3333 24.0625C17.4667 23.8199 17.5778 23.5553 17.7111 23.2907L18.1012 24.1728L18.3111 24.6138C18.6444 25.2533 19 25.8929 19.4222 26.4883C19.8444 27.0837 20.3333 27.635 20.8889 28.1201C20.9778 28.2083 21.1333 28.2083 21.2444 28.1201C21.3556 28.0319 21.3778 27.8555 21.2889 27.7232L21.0851 27.4549C20.7574 27.0016 20.4889 26.5177 20.2667 26.0031C20 25.3857 19.7778 24.7461 19.6 24.1066C19.4222 23.4671 19.2889 22.8056 19.1778 22.144C19.1111 21.8132 19.0667 21.4824 19.0222 21.1516L18.9556 20.6444C18.9333 20.468 18.9111 20.2916 18.9111 20.1593L18.8824 20.0369C18.7888 19.718 18.5605 19.461 18.2444 19.3434C17.6889 19.1228 17.0444 19.3875 16.8222 19.9388C16.6 20.468 16.3556 21.0193 16.1111 21.5486C15.8667 22.0999 15.6 22.6291 15.3556 23.1584C14.8444 24.2169 14.3111 25.2533 13.7333 26.2677C13.4444 26.7749 13.1556 27.2821 12.8444 27.7452C12.5556 28.2083 12.2222 28.6273 11.8667 29.0463C11.7111 29.2227 11.5556 29.3771 11.3778 29.5094C11.3556 29.5315 11.3111 29.5535 11.2889 29.5756L11.2222 29.5976H11.2L11.1556 29.6197H11.1111C11.0667 29.6197 11.1111 29.6417 11.0444 29.5976C10.9333 29.4873 10.8444 29.355 10.7778 29.2227C10.5556 28.7817 10.4 28.2965 10.3111 27.8114C10.2 27.2601 10.1111 26.7088 10.0444 26.1575C9.93333 25.0328 9.86667 23.8641 9.86667 22.6953C9.86667 21.5265 9.88889 20.3357 9.93333 19.1669C9.97778 18.5715 10 17.9761 10.0444 17.4028C10.0889 16.8294 10.2 16.234 10.2 15.6607L10.1988 15.5232C10.1718 15.1157 9.93778 14.7565 9.57778 14.558C9.02222 14.3155 8.37778 14.536 8.11111 15.0652L8.06667 15.1314L7.57778 16.1238C7.42222 16.4325 7.24444 16.7633 7.06667 17.094C6.88889 17.4248 6.73333 17.7336 6.53333 18.0643C6.33333 18.3951 6.15556 18.7039 5.97778 19.0346C5.62222 19.6741 5.24444 20.3137 4.84444 20.9532C4.66667 21.2619 4.46667 21.5927 4.26667 21.9014L3.66667 22.8497C2.84444 24.1066 2.02222 25.3415 1.17778 26.5765C0.977778 26.9072 0.755556 27.216 0.533333 27.5247C0.177778 26.4001 0 25.2313 0 24.0405C0 17.3807 5.42222 12 12.1111 12ZM60.2889 21.4383C61.1111 21.4383 61.8667 21.8132 62.4667 22.1881L62.5778 21.5706H63.4667V27.6129C63.4667 30.0607 62.9111 30.8105 60.6444 30.8105C59.9778 30.8105 59.3111 30.7443 58.6667 30.6561L58.7778 29.9504C59.2 29.9945 59.7556 30.0166 60.3778 30.0166C62.1111 30.0166 62.3333 29.5535 62.3556 27.7452C61.8444 28.0319 61.1333 28.3627 60.4 28.3847C57.9627 28.4275 57.7445 27.1616 57.7338 25.1514L57.7333 24.9667C57.7333 22.8497 57.8667 21.4383 60.2889 21.4383ZM94.8222 21.4383C95.6444 21.4383 96.4 21.8132 97 22.1881L97.1111 21.5706H98V27.6129C98 30.0607 97.4444 30.8105 95.1778 30.8105C94.5111 30.8105 93.8444 30.7443 93.2 30.6561L93.3111 29.9504C93.7333 29.9945 94.2889 30.0166 94.9111 30.0166C96.6444 30.0166 96.8667 29.5535 96.8889 27.7452C96.3778 28.0319 95.6667 28.3627 94.9333 28.3847C92.4222 28.4288 92.2667 27.0837 92.2667 24.9667C92.2667 22.8497 92.4 21.4383 94.8222 21.4383ZM53.7111 21.4383C56.5556 21.4383 56.7111 23.0261 56.7111 24.9667C56.7111 26.9073 56.5556 28.495 53.7111 28.495C50.9457 28.495 50.7218 26.9942 50.7115 25.1275L50.7111 24.9667C50.7111 23.0261 50.8667 21.4383 53.7111 21.4383ZM67.3778 21.4383C68.2 21.4383 68.9333 21.8132 69.4889 22.144L69.6 21.5486H70.4889V28.3627H69.6222L69.5111 27.7452C68.9556 28.0981 68.2222 28.495 67.4222 28.495C64.9111 28.5391 64.7556 27.1278 64.7556 24.9667C64.7556 22.8056 64.8889 21.4383 67.3778 21.4383ZM42.6222 21.4163C44.8444 21.4163 45.3556 22.4307 45.3556 23.7538H44.2889C44.2889 22.6732 43.9111 22.144 42.6222 22.144C40.9487 22.144 40.8081 23.0074 40.8004 24.7342L40.8 24.9226C40.8 26.7749 40.8889 27.7011 42.6222 27.7011C43.9111 27.7011 44.2889 27.1719 44.2889 26.0913L45.3556 26.1354C45.3556 27.4586 44.8444 28.473 42.6222 28.473C39.8222 28.473 39.6667 26.8852 39.6667 24.9446C39.6667 23.004 39.8222 21.4163 42.6222 21.4163ZM91.1111 24.2169V28.3627H89.9778V24.283C89.9778 22.8717 89.8667 22.1881 88.2 22.1881C87.6 22.1881 86.9556 22.5189 86.4889 22.7835V28.3847H85.3556V21.5486H86.2444L86.3556 22.144C86.9111 21.8353 87.6444 21.4604 88.4444 21.4383C90.9556 21.3722 91.1111 22.563 91.1111 24.2169ZM49.8222 21.4604C50 21.4604 50.1556 21.4604 50.3556 21.4824L50.2667 22.2984C50.0889 22.2763 49.9333 22.2763 49.7778 22.2763C49.6444 22.2763 49.5111 22.2763 49.3556 22.2984C48.7556 22.3204 48.1111 22.7614 47.6444 23.0261V28.3847H46.5111V21.5486H47.4L47.5556 22.2763C48.0889 21.9455 48.7778 21.5045 49.4222 21.4824C49.5556 21.4604 49.6889 21.4604 49.8222 21.4604ZM29.3333 19.5418L31.6222 26.5544L33.8667 19.5418H35.7778V28.3847H34.7111V20.3798H34.5111L31.9333 28.3847H31.2889L28.7111 20.3798H28.5111V28.3627H27.4444V19.5418H29.3333ZM76.8667 22.1881C77.4 21.8573 78.1111 21.4604 78.8889 21.4383C81.1708 21.3742 81.3881 22.4898 81.3995 24.0632L81.4 28.3627H80.2667V24.283C80.2667 22.8717 80.1778 22.1881 78.6444 22.1881C78.0889 22.1881 77.5111 22.5189 77.0444 22.8056C77.1556 23.2907 77.2 23.7979 77.1778 24.3051V28.3847H76.2V24.283C76.2 22.8717 76.1111 22.1881 74.5778 22.1881C74.0444 22.1881 73.4667 22.5189 73.0222 22.7614V28.3627H71.8889V21.5486H72.7778L72.8889 22.144C73.4 21.8353 74.0889 21.4604 74.8222 21.4383C75.9778 21.3942 76.5778 21.7029 76.8667 22.1881ZM38.4889 21.5486V28.3627H37.3556V21.5486H38.4889ZM83.9556 21.5486V28.3627H82.8222V21.5486H83.9556ZM67.6889 22.1881C66.0817 22.1881 65.921 23.0493 65.9116 24.7717L65.9111 24.9667C65.9111 26.819 66.0222 27.7452 67.6889 27.7452C68.2889 27.7452 68.9111 27.4144 69.4 27.1278V22.7614C68.9333 22.4968 68.2889 22.1881 67.6889 22.1881ZM53.7111 22.1881C51.9946 22.1881 51.8526 23.0309 51.8448 24.7762L51.8444 24.9667C51.8444 26.819 51.9333 27.7452 53.7111 27.7452C55.4276 27.7452 55.5696 26.9024 55.5774 25.1571L55.5778 24.9667C55.5778 23.0922 55.4889 22.1881 53.7111 22.1881ZM95.1556 22.1881C93.4889 22.1881 93.3778 23.1143 93.3778 24.9667C93.3778 26.7749 93.4889 27.635 95.1556 27.635C95.7556 27.635 96.4 27.3042 96.8667 27.0616V22.8056C96.3778 22.4968 95.7556 22.1881 95.1556 22.1881ZM60.6444 22.1881C58.9778 22.1881 58.8667 23.1143 58.8667 24.9667C58.8667 26.7749 58.9778 27.635 60.6444 27.635C61.2444 27.635 61.8889 27.3042 62.3556 27.0616V22.8056C61.8667 22.4968 61.2444 22.1881 60.6444 22.1881ZM38.4889 19.5418V20.6885H37.3333V19.5418H38.4889ZM83.9556 19.5418V20.6885H82.8V19.5418H83.9556Z" fill="#888888"/>
</svg>
