<svg width="88" height="48" viewBox="0 0 88 48" fill="none" xmlns="http://www.w3.org/2000/svg">
<path d="M76.1146 12C78.1428 12 80.1094 12.8533 81.2161 14.3155C81.8371 15.1525 82.1977 16.1437 82.301 17.1949L82.308 17.299L84.5361 17.2995C85.569 17.2995 86.5482 17.7245 87.1737 18.4252L87.3022 18.5795C87.9332 19.3747 88.1365 20.383 87.9111 21.4552L87.8562 21.6859L86.2572 26.9242C85.7224 28.9283 83.2868 30.5328 81.236 30.6343L81.0323 30.6393L78.537 30.639L78.5117 30.7005C76.9584 33.66 73.4924 35.8706 70.2521 35.9945L69.9668 36H49.0041C47.0376 36 45.3152 35.148 44.2716 33.747C43.7118 32.9157 43.3561 31.9843 43.2496 30.9521L43.23 30.7L3.39124 30.7005C2.35834 30.7005 1.43294 30.3288 0.813538 29.6362L0.685565 29.4829C0.112146 28.6865 -0.141094 27.6781 0.0785362 26.6557L0.132893 26.4364L1.85396 20.9548C2.38757 19.0144 4.29801 17.4704 6.25471 17.3663L6.46448 17.3607L47.0053 17.3605C48.4554 14.3705 51.7271 12.1276 54.9386 12.0053L55.2137 12H76.1146ZM64.927 14.2543H55.3371C52.5697 14.2543 49.6816 16.2641 48.8204 19.0062L45.6854 28.8742C44.8242 31.615 46.3615 33.8082 49.1276 33.8082H54.107C56.873 33.8082 59.5787 31.615 60.4386 28.8728L62.5285 22.1737C62.5902 22.1125 62.5285 22.0514 62.4682 22.0514H55.4591C55.4591 22.0514 55.3974 22.0514 55.3974 22.1125L54.1687 25.8888C54.107 25.9499 54.1687 26.0111 54.2304 26.0111H56.2586C56.3203 26.0111 56.3203 26.0722 56.3203 26.132L55.4591 28.8742C55.4591 28.934 55.4591 28.934 55.3974 28.934H50.8486C50.7869 28.934 50.7869 28.8742 50.7869 28.8117L53.7998 19.1883C53.7998 19.1272 53.7998 19.1272 53.8615 19.1272H63.3897C63.4514 19.1258 63.4514 19.0647 63.4514 19.0647L64.9874 14.3766C65.0491 14.3155 64.9874 14.2543 64.927 14.2543ZM76.4835 14.2543H71.873C69.0452 14.2543 66.0941 16.3252 65.1725 19.1272L62.161 28.7506C61.2998 31.5538 62.7753 33.8082 65.6031 33.8082H70.2136C73.0414 33.8082 76.1159 31.4927 77.0375 28.6907L79.9887 19.1272C80.9102 16.3252 79.3112 14.2543 76.4835 14.2543ZM75.0079 19.066C75.0696 19.066 75.1313 19.1272 75.0696 19.1883L72.0581 28.8742C72.0087 28.922 71.9594 28.9316 71.9416 28.9335L67.2625 28.934C67.2007 28.934 67.1404 28.8742 67.2007 28.813L70.2753 19.1272C70.2753 19.0813 70.31 19.0698 70.3274 19.067L75.0079 19.066ZM30.3152 20.0416H28.4708C28.4708 20.0416 28.4091 20.0416 28.4091 20.1015L27.1803 24C26.8718 25.0368 27.4244 25.9499 28.4708 26.0111C28.5325 26.0111 28.5325 26.0722 28.5325 26.132L27.9785 27.8985C27.9167 27.9597 27.9785 28.0208 28.0402 28.0208H29.886C29.886 28.0208 29.9477 28.0208 29.9477 27.9597H29.9463L30.5607 26.132C30.5607 26.0722 30.5607 26.0722 30.6211 26.0722C31.6674 26.0111 32.7741 25.1577 33.143 24.0611L34.3717 20.2237C34.4335 20.1626 34.3717 20.1015 34.3114 20.1015H32.5273C32.5273 20.1015 32.4669 20.1015 32.4669 20.1626C32.3435 20.5281 31.3602 23.6358 31.2368 24.0611H29.2086C29.2635 23.8422 29.4681 23.142 29.6934 22.388L29.8453 21.8821C30.0734 21.1253 30.2936 20.4096 30.3769 20.1626C30.4373 20.1015 30.3769 20.0416 30.3152 20.0416ZM41.8731 21.9903C41.8456 22.0174 41.4176 22.0325 40.9504 22.0409L40.5983 22.046C40.3083 22.0494 40.0382 22.0506 39.8765 22.0511L39.7214 22.0514C38.6147 22.0514 37.4463 22.9646 37.0788 24.0611L35.9104 27.8985C35.9104 27.9597 35.9104 28.0208 35.9721 28.0208H37.8152C37.8769 28.0208 37.8769 28.0208 37.8769 27.9597C38.0003 27.5343 38.8602 24.7311 39.107 24.0611H41.0736C40.9754 24.4025 40.7885 25.0067 40.5919 25.6401L40.4438 26.1169C40.1979 26.9086 39.9676 27.6546 39.9065 27.8985C39.9065 27.9597 39.9065 28.0208 39.9669 28.0208H41.8114C41.8731 28.0208 41.8731 28.0208 41.8731 27.9597L43.1032 24C43.4104 22.9646 42.8563 22.0514 41.8731 21.9903ZM25.2138 20.0416H23.1238C22.0171 20.0416 20.8487 20.9548 20.4812 22.0514L18.7588 27.8999C18.7588 27.9597 18.7588 28.0208 18.8205 28.0208H20.6649C20.7266 28.0208 20.7266 28.0208 20.7266 27.9597L21.4644 25.6455C21.4644 25.5844 21.5248 25.5844 21.5248 25.5844H23.3693C23.431 25.5844 23.4927 25.6455 23.431 25.7067L22.7549 27.8999C22.7549 27.9597 22.7549 28.0208 22.8166 28.0208H24.6597C24.7214 28.0208 24.7214 28.0208 24.7214 27.9597L26.5659 22.0514C26.9348 20.9548 26.3204 20.0416 25.2138 20.0416ZM11.075 20.0416H7.07886C7.01715 20.0416 7.01715 20.0416 7.01715 20.1015L4.62 27.8985C4.62 27.9597 4.62 28.0208 4.68171 28.0208H6.52618C6.58789 28.0208 6.58789 28.0208 6.58789 27.9597L7.20227 26.0722C7.20227 26.0111 7.26398 26.0111 7.26398 26.0111H9.23052C10.3372 26.0111 11.5056 25.0966 11.8732 24L12.4889 21.9903C12.7961 20.9548 12.1803 20.0416 11.075 20.0416ZM15.931 20.0416H14.0865C14.0865 20.0416 14.0248 20.0416 14.0248 20.1015L11.5673 28.0208H17.4066C17.4066 28.0208 17.4683 28.0208 17.4683 27.9597L18.697 24.1223C18.7588 24.0611 18.697 24 18.6353 24H16.7922C16.7922 24 16.7305 24 16.7305 24.0625L16.1148 25.9499C16.1148 26.0111 16.1148 26.0111 16.0544 26.0111H14.2716C14.2086 26.0111 14.2086 25.9499 14.2086 25.8888L15.9927 20.1626C16.0544 20.1015 15.9927 20.0416 15.931 20.0416ZM24.5994 22.0514L23.9837 24.0611H21.9554L22.5698 22.0514H24.5994ZM10.4606 22.0514L9.8449 24.0611H7.81665L8.43103 22.0514H10.4606ZM37.8166 20.0416H35.4798L34.8037 22.4169H37.0788L37.8166 20.0416Z" fill="#888888"/>
</svg>
