<svg width="84" height="48" viewBox="0 0 84 48" fill="none" xmlns="http://www.w3.org/2000/svg">
<path fill-rule="evenodd" clip-rule="evenodd" d="M16.6469 12.0111C16.6865 12.0279 16.7161 12.0622 16.727 12.1038L18.511 18.909L28.2833 19.5603C28.3599 19.5654 28.4179 19.6316 28.4128 19.7082C28.4099 19.7503 28.3881 19.7889 28.3535 19.813L21.1859 24.8053C21.1229 24.8491 21.0362 24.8336 20.9923 24.7707C20.9839 24.7586 20.9775 24.7453 20.9733 24.7312L20.3569 22.6778C20.3421 22.6288 20.3555 22.5757 20.3917 22.5395L22.5997 20.3331C22.654 20.2788 22.654 20.1908 22.5997 20.1365C22.5697 20.1064 22.5275 20.0917 22.4852 20.0967L19.0451 20.5011C18.9892 20.5077 18.9354 20.48 18.9081 20.4319L21.58 30.619L21.6755 30.6774C21.7065 30.6961 21.729 30.7262 21.7382 30.7613L23.012 35.641C23.0314 35.7153 22.9869 35.7912 22.9126 35.8106C22.871 35.8215 22.8267 35.8125 22.7926 35.7862L13.421 28.554L12.9245 31.3462C12.9182 31.3817 12.8983 31.4134 12.8691 31.4345L6.59656 35.9736C6.53437 36.0186 6.44747 36.0047 6.40246 35.9425C6.3739 35.903 6.36809 35.8515 6.38713 35.8066L10.444 26.256L0.0540841 18.2377C-0.00669115 18.1908 -0.0179364 18.1035 0.028967 18.0427C0.0568877 18.0065 0.100807 17.9864 0.146441 17.9888L12.4862 18.6494C12.5628 18.6535 12.6216 18.719 12.6175 18.7957C12.6167 18.8115 12.6131 18.8271 12.607 18.8417L11.5554 21.3638C11.5359 21.4107 11.4922 21.4432 11.4417 21.4486L7.5312 21.8599C7.45485 21.8679 7.39947 21.9363 7.4075 22.0127C7.41206 22.056 7.43667 22.0947 7.47398 22.1172L11.238 24.386L16.4646 12.0847C16.4946 12.014 16.5762 11.9811 16.6469 12.0111ZM55.948 21.5227L57.626 21.8245L51.4536 34.0953L49.8955 33.7376L52.2926 29.0291L48.9367 21.8245L50.6746 21.5227L53.0717 27.2558L55.948 21.5227ZM61.9407 21.5227L62.6598 22.495C62.6598 22.495 61.0867 22.9794 60.2362 23.3369C58.8164 24.231 59.5885 25.408 59.9632 25.9595C60.3377 26.5107 62.6598 30.0423 62.6598 31.1747C62.4272 33.6044 58.7508 34.0689 58.5348 34.0941L58.5248 34.0952L57.8127 32.8436C57.8127 32.8436 59.0642 32.6051 60.2362 32.188C61.7079 31.1747 60.5024 29.8038 60.5024 29.8038C60.5024 29.8038 58.1055 25.8476 57.8657 24.976C57.2664 22.0554 61.9407 21.5227 61.9407 21.5227ZM77.9409 21.8915L81.3342 21.9362C84.0534 22.3832 83.7387 24.5514 83.7387 25.8924C83.6797 28.1805 82.1584 28.7062 81.7789 28.8018L81.7161 28.8162C81.7016 28.8191 81.6938 28.8204 81.6938 28.8204L84 33.5588L82.5253 34.0953C82.5253 34.0953 80.0982 28.3509 79.851 27.7587C81.7612 28.0381 82.0084 26.4511 82.0084 26.4511V24.5289C81.8062 22.6738 79.4391 23.1432 79.4391 23.1432V33.6929H77.9409V21.8915ZM45.9404 21.5227L48.9368 33.7377H47.4386L45.2812 25.1548L43.8394 31.9237L46.8093 31.9247L45.3261 33.3999L43.8344 31.9457L43.4535 33.7377H41.6857L44.4423 22.495L45.9404 21.5227ZM73.8059 21.5227L76.9222 33.6929L75.3641 33.7377L73.1469 25.1548L71.2292 33.7377H69.4314L72.3079 22.495L73.8059 21.5227ZM32.5471 21.8245C34.2099 22.0032 34.592 22.8749 34.929 23.5008C35.2661 24.5067 35.0863 26.6747 34.929 27.4122C34.5407 28.6997 32.6613 28.916 32.5115 28.9312L32.5021 28.9321L30.9739 28.9098V33.7376H29.3784V21.8245H32.5471ZM37.7905 21.8245V32.3667H40.4273L41.1464 33.7376H36.1126V21.8245H37.7905ZM68.9071 21.8245L68.2329 23.0761H66.9745L66.9295 33.693H65.5362L65.4014 23.1209L63.7609 23.132L64.4351 21.8245H68.9071ZM74.7 31.9247L73.217 33.3999L71.7038 31.9247H74.7ZM15.3475 18.134C15.3011 18.151 15.2672 18.1915 15.2585 18.2402L13.88 25.979L19.64 29.451L15.5259 18.2167C15.4995 18.1447 15.4196 18.1076 15.3475 18.134ZM32.2493 23.1432L30.884 23.1882V27.781H32.1424C32.1424 27.781 33.356 27.524 33.4234 26.5182C33.4908 25.5125 33.4234 24.3725 33.4234 24.3725C33.4234 24.3725 33.1876 23.1432 32.2493 23.1432Z" fill="#888888"/>
</svg>
