<svg width="62" height="48" viewBox="0 0 62 48" fill="none" xmlns="http://www.w3.org/2000/svg">
<path d="M12.1094 12C18.7937 12 24.2188 17.376 24.2188 24C24.2188 30.72 18.7937 36 12.1094 36C5.425 36 0 30.624 0 24C0 17.376 5.425 12 12.1094 12ZM9.78438 12.48C9.49375 12.576 9.3 12.576 9.00937 12.672C6.29687 15.264 4.45625 18.816 3.875 22.464C3.1 21.12 2.42187 19.584 2.03437 18.144C0.96875 19.968 0.3875 21.984 0.3875 24.096V24.864C0.58125 25.152 0.775 25.536 0.96875 25.824C1.55 26.592 2.13125 27.264 2.7125 27.936C3.1 28.992 3.58437 30.048 4.2625 31.008C4.45625 31.296 4.65 31.584 4.84375 31.776C3.97188 31.392 3.00313 30.816 2.22813 30.24C3.39063 32.16 5.0375 33.6 6.975 34.464C6.92656 34.392 6.88418 34.326 6.84482 34.263L6.6208 33.897L6.49062 33.696C6.87812 33.984 7.26562 34.368 7.65312 34.656C7.75 34.68 7.84687 34.71 7.94375 34.743L8.525 34.953L8.81563 35.04C7.75 34.272 6.78125 33.408 5.90938 32.448C7.16875 32.928 8.62187 33.216 9.97812 33.216H10.4625C11.625 33.216 12.7875 33.12 13.95 32.832H14.1438C16.7594 32.832 19.0844 32.256 21.3125 31.2C21.3609 31.152 21.4033 31.098 21.4427 31.041L21.6667 30.687L21.7969 30.528C19.7625 31.584 17.6312 32.256 15.4031 32.448C16.4687 32.064 17.6313 31.488 18.6 30.816C19.6656 30.816 20.7313 30.624 21.7969 30.432C23.1531 28.416 23.8312 26.208 23.8312 23.904C23.8312 23.328 23.8312 22.752 23.7344 22.176C23.25 25.632 21.4094 28.608 18.6 30.528H18.3094C12.5938 30.528 7.26562 27.648 4.16563 22.944C4.74688 18.912 6.68438 15.168 9.78438 12.48ZM30.7094 26.4V27.936H28.2875C27.9 27.936 27.6094 28.224 27.6094 28.608C27.6094 28.8 27.7063 28.896 27.8031 29.088C27.9 29.184 28.0938 29.28 28.2875 29.28H29.0625C30.225 29.28 31.1938 30.24 31.1938 31.392C31.1938 32.544 30.225 33.504 29.0625 33.504H26.6406V31.968H29.0625C29.45 31.968 29.7406 31.68 29.7406 31.296C29.7406 31.104 29.6437 31.008 29.5469 30.816C29.45 30.72 29.2562 30.624 29.0625 30.624H28.2875C27.125 30.624 26.1562 29.664 26.1562 28.512C26.1562 27.36 27.125 26.4 28.2875 26.4H30.7094ZM61.5156 26.4V27.936H59.0938C58.7063 27.936 58.4156 28.224 58.4156 28.608C58.4156 28.8 58.5125 28.896 58.6094 29.088C58.7062 29.184 58.9 29.28 59.0938 29.28H59.8688C61.0313 29.28 62 30.24 62 31.392C62 32.544 61.0313 33.504 59.8688 33.504H57.4469V31.968H59.8688C60.2563 31.968 60.5469 31.68 60.5469 31.296C60.5469 31.104 60.45 31.008 60.3531 30.816C60.2563 30.72 60.0625 30.624 59.8688 30.624H59.0938C57.9312 30.624 56.9625 29.664 56.9625 28.512C56.9625 27.36 57.9312 26.4 59.0938 26.4H61.5156ZM34.875 26.208C36.0375 26.208 37.0062 27.168 37.0062 28.32C37.0062 28.896 36.8125 29.472 36.3281 29.856C35.9406 30.24 35.3594 30.528 34.7781 30.528C34.7781 30.624 33.5187 30.624 33.5187 30.624V33.408H31.9688V26.208H34.875ZM48.6312 26.208C49.7937 26.208 50.7625 27.168 50.7625 28.32C50.7625 28.896 50.5687 29.472 50.0844 29.856C49.8906 30.048 49.6969 30.144 49.5031 30.24L50.9562 33.216H49.4062L48.05 30.432H47.3719V30.624H47.275V33.408H45.725V26.208H48.6312ZM39.4281 26.88C40.7844 25.92 42.7219 26.016 43.9813 27.264C44.3688 27.744 44.6594 28.224 45.0469 28.8C45.6281 30.72 44.4656 32.64 42.625 33.216C40.6875 33.792 38.75 32.64 38.1688 30.816H38.2656L40.9781 31.68C42.0438 31.968 43.2063 31.392 43.5938 30.336C43.8844 29.28 43.3031 28.128 42.2375 27.744L40.3969 27.168L39.4281 26.88ZM56.0906 26.208V27.744H54.6375V33.312H53.0875V27.744H51.5375V26.208H56.0906ZM4.65 29.856C6.78125 31.392 9.20313 32.448 11.7219 32.832C11.7945 32.832 11.8611 32.838 11.9247 32.847L12.294 32.913L12.4969 32.928C11.7219 33.024 10.85 33.024 9.97812 33.12C8.42812 33.024 6.975 32.736 5.52187 32.256C5.23125 31.488 4.84375 30.624 4.65 29.856ZM4.16563 23.52C7.3625 28.032 12.4969 30.816 18.0187 30.912C16.8562 31.68 15.5 32.256 14.0469 32.64C13.2719 32.64 12.4969 32.544 11.8188 32.448C9.10625 31.968 6.68437 30.912 4.55312 29.088C4.2625 27.744 4.06875 26.4 4.06875 25.056C4.06875 24.576 4.06875 24 4.16563 23.52ZM3.39062 28.608C3.68125 28.8 3.97187 29.088 4.2625 29.376C4.45625 30.048 4.65 30.624 4.84375 31.2L4.732 30.868L4.70735 30.8252L4.65 30.72C4.16563 30.048 3.77812 29.28 3.39062 28.608ZM38.0719 29.088L39.525 29.568V30.624L37.8781 30.048L37.8787 29.7681C37.8821 29.5817 37.9058 29.3349 38.0719 29.088ZM48.6312 27.648H47.275V28.992H48.6312C49.0187 28.992 49.3094 28.704 49.3094 28.32C49.3094 28.128 49.2125 28.032 49.1156 27.84C49.0187 27.744 48.825 27.648 48.6312 27.648ZM34.875 27.648H33.5187V28.992H34.875C35.2625 28.992 35.5531 28.704 35.5531 28.32C35.5531 28.128 35.4562 28.032 35.3594 27.84C35.2625 27.744 35.0687 27.648 34.875 27.648ZM38.75 27.456L40.3969 28.032C40.1062 28.224 39.8156 28.512 39.6219 28.8L38.1688 28.32L38.75 27.456ZM1.84063 18.912C2.325 20.352 2.90625 21.792 3.77813 23.04C3.58438 24.96 3.68125 26.88 4.06875 28.704C3.77812 28.416 3.39062 28.032 2.90625 27.744C1.84063 24.96 1.55 21.888 1.84063 18.912ZM17.1469 19.968L15.5969 22.848L14.4344 24.96L17.9219 23.808L19.5688 26.88H21.0219L17.1469 19.968ZM15.6938 25.248L13.8531 25.824L13.4656 26.688H14.9187L15.6938 25.248ZM12.8844 21.312C12.5937 21.6 12.1094 21.888 11.7219 21.984C11.8188 22.08 11.9156 22.176 11.9156 22.368L11.9072 22.4541C11.8575 22.7107 11.5959 22.944 11.3344 22.944H10.075V21.984H8.71875V26.688H11.4312L11.5757 26.6823C12.485 26.6105 13.2719 25.8672 13.2719 24.864C13.2719 24.48 13.0781 24 12.6906 23.616C12.9813 23.232 13.175 22.848 13.175 22.368C13.175 21.984 13.0781 21.6 12.8844 21.312ZM11.2375 24.288C11.625 24.288 11.8188 24.576 11.8188 24.864L11.8103 24.9501C11.7606 25.2067 11.4991 25.44 11.2375 25.44H10.075V24.288H11.2375ZM47.7594 14.688C48.5344 14.688 49.3094 14.976 49.8906 15.552C50.4719 16.128 50.7625 16.896 50.7625 17.664C50.7625 18.336 50.4719 19.008 50.0844 19.584C51.0531 20.736 51.0531 22.464 49.8906 23.616C49.3094 24.192 48.5344 24.48 47.7594 24.48H41.3656L39.0406 20.16L34.5844 21.504L38.4594 14.688L43.69 24.301L43.6906 14.688H47.7594ZM55.9938 14.688L61.5156 24.48H58.9969L56.575 20.16L52.2156 21.504L55.9938 14.688ZM36.7156 22.08L35.3594 24.48H32.9375L33.7125 23.04L36.7156 22.08ZM54.4437 22.08L53.0875 24.48H50.6656L51.4406 23.04L54.4437 22.08ZM32.4531 14.688V16.704H29.1594C28.675 16.704 28.2875 17.088 28.2875 17.568C28.2875 18.048 28.675 18.432 29.1594 18.432H30.225C31.8131 18.432 33.1309 19.6817 33.223 21.2343L33.2281 21.408C33.2281 22.9817 31.967 24.2876 30.4003 24.3789L30.225 24.384H26.9312V22.272H30.225C30.7094 22.272 31.0969 21.888 31.0969 21.408C31.0969 20.928 30.7094 20.64 30.225 20.64L29.1594 20.736C28.3844 20.736 27.6094 20.448 27.0281 19.872C26.4469 19.296 26.1562 18.528 26.1562 17.664C26.1562 16.8 26.4469 16.128 27.0281 15.552C27.6094 14.976 28.3844 14.688 29.1594 14.688H32.4531ZM47.7594 20.736H45.8219V22.464H47.7594C48.2065 22.464 48.5711 22.1368 48.6245 21.7089L48.6312 21.6C48.6312 21.1569 48.3011 20.7956 47.8693 20.7427L47.7594 20.736ZM12.4 14.976H10.1719C9.10625 14.976 8.23438 15.84 8.23438 16.896C8.23438 17.952 9.10625 18.816 10.1719 18.816H10.85L10.9369 18.8244C11.1958 18.8736 11.4312 19.1328 11.4312 19.392C11.4312 19.68 11.2375 19.872 10.85 19.872H8.71875V21.216H10.85C11.9156 21.216 12.7875 20.352 12.7875 19.296C12.7875 18.24 11.9156 17.376 10.85 17.376H10.1719C10.075 17.376 9.88125 17.28 9.78438 17.184C9.6875 17.088 9.6875 16.896 9.6875 16.8C9.6875 16.512 9.97813 16.224 10.2688 16.32H12.4V14.976ZM16.7594 15.072L14.4344 19.2L17.1469 18.336L18.6 21.024H20.0531L16.7594 15.072ZM15.7906 19.488L13.95 20.064L13.4656 20.928H15.0156L15.7906 19.488ZM47.6625 16.8H45.8219V18.528H47.7594C48.1469 18.528 48.5344 18.144 48.5344 17.664C48.5344 17.2209 48.2042 16.8596 47.7724 16.8067L47.6625 16.8Z" fill="#888888"/>
</svg>
